<?xml version="1.0" encoding="UTF-8"?>
<svg xmlns="http://www.w3.org/2000/svg" version="1.1" width="500" height="500" viewBox="0 0 500 500"><rect x="0" y="0" width="500" height="500" fill="#ffffff"/><g transform="scale(8.197)"><g transform="translate(0,0)"><path fill-rule="evenodd" d="M12 0L12 1L10 1L10 2L12 2L12 1L13 1L13 0ZM16 0L16 1L14 1L14 3L15 3L15 2L16 2L16 4L13 4L13 3L12 3L12 5L10 5L10 4L11 4L11 3L10 3L10 4L9 4L9 3L8 3L8 4L9 4L9 5L8 5L8 7L9 7L9 6L10 6L10 8L6 8L6 9L5 9L5 8L0 8L0 14L2 14L2 17L0 17L0 19L1 19L1 20L0 20L0 21L1 21L1 20L2 20L2 22L0 22L0 23L1 23L1 25L2 25L2 26L0 26L0 27L1 27L1 29L0 29L0 34L1 34L1 36L0 36L0 37L1 37L1 36L2 36L2 37L3 37L3 36L4 36L4 37L5 37L5 38L0 38L0 46L1 46L1 45L2 45L2 46L3 46L3 47L0 47L0 50L1 50L1 48L3 48L3 50L2 50L2 51L0 51L0 53L4 53L4 52L5 52L5 51L7 51L7 52L6 52L6 53L8 53L8 55L9 55L9 56L8 56L8 61L10 61L10 60L11 60L11 61L13 61L13 60L12 60L12 54L13 54L13 53L14 53L14 55L13 55L13 57L14 57L14 56L15 56L15 57L18 57L18 58L17 58L17 59L16 59L16 58L14 58L14 60L15 60L15 61L17 61L17 60L18 60L18 61L22 61L22 60L18 60L18 59L20 59L20 58L19 58L19 57L20 57L20 56L19 56L19 57L18 57L18 56L16 56L16 53L17 53L17 55L18 55L18 53L22 53L22 54L23 54L23 53L24 53L24 56L26 56L26 55L25 55L25 54L27 54L27 53L24 53L24 51L23 51L23 53L22 53L22 49L23 49L23 50L24 50L24 49L26 49L26 50L25 50L25 52L26 52L26 51L28 51L28 50L27 50L27 49L28 49L28 47L29 47L29 46L30 46L30 47L32 47L32 45L31 45L31 42L29 42L29 39L30 39L30 41L33 41L33 40L34 40L34 41L35 41L35 42L36 42L36 43L35 43L35 44L36 44L36 47L37 47L37 48L36 48L36 50L32 50L32 51L31 51L31 52L28 52L28 56L27 56L27 57L29 57L29 58L30 58L30 60L31 60L31 61L32 61L32 60L34 60L34 59L35 59L35 60L36 60L36 61L37 61L37 60L36 60L36 59L37 59L37 58L36 58L36 59L35 59L35 58L33 58L33 59L32 59L32 57L33 57L33 56L35 56L35 57L37 57L37 56L41 56L41 57L40 57L40 59L39 59L39 58L38 58L38 59L39 59L39 60L41 60L41 58L43 58L43 57L44 57L44 58L45 58L45 59L42 59L42 61L43 61L43 60L45 60L45 59L46 59L46 60L47 60L47 61L50 61L50 59L51 59L51 60L52 60L52 59L51 59L51 58L50 58L50 55L51 55L51 57L54 57L54 58L55 58L55 59L54 59L54 60L53 60L53 61L54 61L54 60L55 60L55 61L61 61L61 54L60 54L60 51L61 51L61 50L60 50L60 49L61 49L61 40L60 40L60 39L61 39L61 38L60 38L60 37L61 37L61 34L58 34L58 33L59 33L59 32L58 32L58 33L57 33L57 30L58 30L58 31L59 31L59 30L58 30L58 29L60 29L60 27L61 27L61 26L60 26L60 25L59 25L59 24L57 24L57 23L59 23L59 22L60 22L60 23L61 23L61 22L60 22L60 21L61 21L61 18L60 18L60 17L61 17L61 16L60 16L60 17L58 17L58 18L57 18L57 19L53 19L53 18L56 18L56 16L57 16L57 15L56 15L56 16L55 16L55 15L52 15L52 14L50 14L50 12L51 12L51 13L53 13L53 14L56 14L56 12L58 12L58 13L57 13L57 14L58 14L58 15L59 15L59 14L58 14L58 13L59 13L59 12L60 12L60 11L61 11L61 10L60 10L60 11L59 11L59 12L58 12L58 11L54 11L54 12L55 12L55 13L53 13L53 12L51 12L51 10L50 10L50 9L49 9L49 8L50 8L50 7L51 7L51 5L52 5L52 4L53 4L53 0L51 0L51 2L50 2L50 4L49 4L49 3L48 3L48 4L47 4L47 1L46 1L46 0L44 0L44 1L46 1L46 3L45 3L45 2L44 2L44 3L43 3L43 2L42 2L42 3L41 3L41 2L40 2L40 1L43 1L43 0L39 0L39 1L36 1L36 2L37 2L37 3L36 3L36 5L34 5L34 4L35 4L35 1L33 1L33 0L30 0L30 1L28 1L28 0L24 0L24 1L20 1L20 2L21 2L21 3L18 3L18 4L17 4L17 1L18 1L18 0ZM8 1L8 2L9 2L9 1ZM25 1L25 3L24 3L24 2L23 2L23 3L22 3L22 4L23 4L23 5L22 5L22 6L21 6L21 4L18 4L18 5L17 5L17 4L16 4L16 6L15 6L15 7L16 7L16 9L15 9L15 8L14 8L14 6L13 6L13 7L12 7L12 6L11 6L11 7L12 7L12 8L11 8L11 9L10 9L10 10L13 10L13 11L12 11L12 12L13 12L13 13L16 13L16 14L11 14L11 15L10 15L10 13L11 13L11 11L10 11L10 13L9 13L9 10L8 10L8 11L6 11L6 10L7 10L7 9L6 9L6 10L5 10L5 11L6 11L6 12L8 12L8 13L6 13L6 14L5 14L5 13L4 13L4 14L3 14L3 13L2 13L2 12L4 12L4 9L3 9L3 10L2 10L2 9L1 9L1 13L2 13L2 14L3 14L3 15L4 15L4 16L7 16L7 17L5 17L5 18L7 18L7 17L9 17L9 18L8 18L8 19L6 19L6 20L7 20L7 21L5 21L5 20L4 20L4 17L3 17L3 21L4 21L4 24L3 24L3 23L2 23L2 25L6 25L6 26L5 26L5 27L3 27L3 26L2 26L2 28L7 28L7 27L9 27L9 26L7 26L7 25L6 25L6 24L7 24L7 23L8 23L8 22L10 22L10 21L8 21L8 19L9 19L9 20L10 20L10 19L9 19L9 18L11 18L11 21L12 21L12 22L11 22L11 23L12 23L12 22L15 22L15 21L16 21L16 24L18 24L18 25L16 25L16 27L15 27L15 29L14 29L14 28L13 28L13 27L14 27L14 26L15 26L15 25L14 25L14 24L15 24L15 23L13 23L13 24L12 24L12 25L11 25L11 24L10 24L10 25L11 25L11 26L12 26L12 25L14 25L14 26L13 26L13 27L10 27L10 28L9 28L9 29L11 29L11 30L10 30L10 31L11 31L11 32L12 32L12 33L10 33L10 32L9 32L9 33L8 33L8 34L7 34L7 33L4 33L4 34L2 34L2 33L3 33L3 32L1 32L1 34L2 34L2 36L3 36L3 35L4 35L4 36L5 36L5 34L7 34L7 35L6 35L6 36L7 36L7 37L6 37L6 38L7 38L7 39L6 39L6 40L5 40L5 42L7 42L7 43L6 43L6 44L5 44L5 43L4 43L4 41L3 41L3 43L4 43L4 45L3 45L3 44L2 44L2 45L3 45L3 46L4 46L4 45L5 45L5 46L7 46L7 47L5 47L5 50L7 50L7 49L9 49L9 50L10 50L10 48L7 48L7 47L9 47L9 46L10 46L10 47L11 47L11 46L10 46L10 45L12 45L12 46L13 46L13 45L12 45L12 44L8 44L8 45L6 45L6 44L7 44L7 43L8 43L8 42L9 42L9 43L11 43L11 42L12 42L12 43L13 43L13 44L15 44L15 45L16 45L16 48L14 48L14 49L16 49L16 50L14 50L14 53L16 53L16 52L17 52L17 53L18 53L18 52L19 52L19 49L20 49L20 52L21 52L21 49L22 49L22 48L21 48L21 49L20 49L20 46L21 46L21 47L22 47L22 45L25 45L25 46L26 46L26 49L27 49L27 46L26 46L26 45L28 45L28 46L29 46L29 45L28 45L28 43L27 43L27 42L28 42L28 41L25 41L25 40L26 40L26 39L25 39L25 38L26 38L26 37L27 37L27 38L28 38L28 39L29 39L29 38L28 38L28 37L27 37L27 36L29 36L29 37L30 37L30 36L29 36L29 35L30 35L30 34L31 34L31 33L28 33L28 29L27 29L27 28L28 28L28 27L29 27L29 28L30 28L30 26L29 26L29 25L31 25L31 26L33 26L33 27L34 27L34 28L35 28L35 29L33 29L33 31L34 31L34 32L33 32L33 34L32 34L32 36L31 36L31 37L32 37L32 38L30 38L30 39L32 39L32 40L33 40L33 39L32 39L32 38L33 38L33 37L34 37L34 40L35 40L35 36L37 36L37 38L39 38L39 37L38 37L38 36L40 36L40 37L41 37L41 38L42 38L42 39L41 39L41 40L40 40L40 41L41 41L41 40L44 40L44 41L43 41L43 42L41 42L41 44L39 44L39 43L40 43L40 42L39 42L39 40L37 40L37 39L36 39L36 40L37 40L37 41L36 41L36 42L37 42L37 43L36 43L36 44L37 44L37 46L40 46L40 48L37 48L37 50L36 50L36 52L37 52L37 53L35 53L35 54L34 54L34 53L33 53L33 54L34 54L34 55L35 55L35 54L36 54L36 55L38 55L38 54L39 54L39 55L41 55L41 54L42 54L42 57L43 57L43 56L44 56L44 57L45 57L45 58L47 58L47 60L49 60L49 59L48 59L48 58L49 58L49 57L45 57L45 55L43 55L43 54L45 54L45 52L46 52L46 54L47 54L47 55L46 55L46 56L48 56L48 54L51 54L51 55L52 55L52 53L50 53L50 52L52 52L52 51L50 51L50 50L53 50L53 48L54 48L54 47L53 47L53 48L52 48L52 49L51 49L51 48L49 48L49 49L47 49L47 48L48 48L48 47L47 47L47 48L46 48L46 47L45 47L45 45L46 45L46 46L48 46L48 44L49 44L49 45L50 45L50 46L49 46L49 47L50 47L50 46L51 46L51 47L52 47L52 46L55 46L55 49L56 49L56 50L55 50L55 51L54 51L54 52L57 52L57 54L58 54L58 56L60 56L60 54L59 54L59 53L58 53L58 52L59 52L59 49L60 49L60 47L59 47L59 45L60 45L60 44L59 44L59 43L60 43L60 42L59 42L59 41L58 41L58 42L59 42L59 43L58 43L58 44L59 44L59 45L54 45L54 44L57 44L57 43L56 43L56 42L57 42L57 40L59 40L59 39L60 39L60 38L57 38L57 37L58 37L58 36L60 36L60 35L57 35L57 33L56 33L56 34L55 34L55 35L53 35L53 36L55 36L55 37L56 37L56 38L55 38L55 39L54 39L54 38L52 38L52 39L51 39L51 40L50 40L50 42L49 42L49 41L47 41L47 40L49 40L49 39L50 39L50 38L51 38L51 37L50 37L50 34L54 34L54 33L52 33L52 32L49 32L49 31L48 31L48 30L49 30L49 29L50 29L50 30L51 30L51 31L52 31L52 29L51 29L51 28L52 28L52 27L50 27L50 26L53 26L53 27L55 27L55 28L56 28L56 25L57 25L57 26L58 26L58 28L59 28L59 25L57 25L57 24L55 24L55 22L53 22L53 21L54 21L54 20L53 20L53 19L52 19L52 18L53 18L53 17L52 17L52 16L49 16L49 13L47 13L47 12L50 12L50 10L49 10L49 11L47 11L47 12L46 12L46 10L48 10L48 9L47 9L47 8L49 8L49 7L50 7L50 5L49 5L49 7L48 7L48 5L47 5L47 4L45 4L45 3L44 3L44 4L43 4L43 5L42 5L42 4L41 4L41 3L40 3L40 5L39 5L39 2L38 2L38 5L36 5L36 6L35 6L35 7L34 7L34 6L33 6L33 8L34 8L34 9L32 9L32 10L31 10L31 11L32 11L32 12L30 12L30 14L29 14L29 10L30 10L30 9L25 9L25 10L21 10L21 13L18 13L18 12L19 12L19 11L20 11L20 10L19 10L19 11L18 11L18 12L17 12L17 11L16 11L16 12L15 12L15 10L17 10L17 9L18 9L18 8L17 8L17 7L18 7L18 5L19 5L19 9L24 9L24 6L23 6L23 5L24 5L24 4L27 4L27 5L28 5L28 4L27 4L27 1ZM31 1L31 3L29 3L29 2L28 2L28 3L29 3L29 4L32 4L32 2L33 2L33 1ZM48 1L48 2L49 2L49 1ZM23 3L23 4L24 4L24 3ZM51 3L51 4L52 4L52 3ZM44 4L44 5L45 5L45 4ZM29 5L29 8L32 8L32 5ZM38 5L38 7L37 7L37 6L36 6L36 7L35 7L35 10L34 10L34 12L33 12L33 13L32 13L32 14L31 14L31 16L30 16L30 15L29 15L29 14L28 14L28 13L26 13L26 10L25 10L25 11L24 11L24 12L23 12L23 11L22 11L22 12L23 12L23 13L24 13L24 14L26 14L26 16L25 16L25 15L24 15L24 17L23 17L23 14L22 14L22 15L21 15L21 14L19 14L19 16L17 16L17 17L19 17L19 16L20 16L20 17L21 17L21 20L20 20L20 19L19 19L19 18L18 18L18 19L17 19L17 20L16 20L16 19L15 19L15 18L16 18L16 17L15 17L15 18L14 18L14 17L11 17L11 16L10 16L10 15L9 15L9 16L10 16L10 17L11 17L11 18L12 18L12 21L14 21L14 19L15 19L15 20L16 20L16 21L17 21L17 23L18 23L18 21L22 21L22 24L24 24L24 23L25 23L25 24L26 24L26 23L25 23L25 22L27 22L27 23L29 23L29 24L27 24L27 27L26 27L26 28L25 28L25 29L24 29L24 30L23 30L23 29L22 29L22 27L21 27L21 28L19 28L19 27L20 27L20 26L19 26L19 25L20 25L20 24L21 24L21 23L20 23L20 22L19 22L19 25L18 25L18 26L17 26L17 27L16 27L16 29L15 29L15 30L16 30L16 29L17 29L17 31L18 31L18 29L22 29L22 30L21 30L21 31L22 31L22 30L23 30L23 33L24 33L24 34L23 34L23 35L22 35L22 34L20 34L20 33L22 33L22 32L20 32L20 31L19 31L19 32L17 32L17 33L16 33L16 31L15 31L15 33L16 33L16 34L15 34L15 35L16 35L16 37L15 37L15 36L14 36L14 37L15 37L15 39L14 39L14 38L12 38L12 39L11 39L11 38L10 38L10 37L11 37L11 36L10 36L10 37L9 37L9 34L8 34L8 37L7 37L7 38L8 38L8 40L6 40L6 41L8 41L8 40L10 40L10 42L11 42L11 40L12 40L12 42L13 42L13 43L16 43L16 45L17 45L17 49L19 49L19 46L18 46L18 45L22 45L22 44L21 44L21 43L22 43L22 42L23 42L23 41L22 41L22 42L21 42L21 41L19 41L19 39L20 39L20 38L18 38L18 39L17 39L17 40L16 40L16 37L17 37L17 35L18 35L18 37L19 37L19 36L20 36L20 37L22 37L22 39L21 39L21 40L25 40L25 39L24 39L24 38L25 38L25 37L24 37L24 38L23 38L23 37L22 37L22 36L23 36L23 35L24 35L24 36L26 36L26 35L25 35L25 34L27 34L27 35L28 35L28 34L27 34L27 33L26 33L26 32L27 32L27 30L25 30L25 29L26 29L26 28L27 28L27 27L28 27L28 25L29 25L29 24L31 24L31 23L30 23L30 22L33 22L33 21L36 21L36 22L34 22L34 23L36 23L36 22L37 22L37 20L38 20L38 19L39 19L39 18L40 18L40 16L41 16L41 19L40 19L40 20L39 20L39 21L40 21L40 20L41 20L41 21L42 21L42 22L41 22L41 23L40 23L40 22L38 22L38 23L37 23L37 24L35 24L35 25L36 25L36 26L34 26L34 27L35 27L35 28L36 28L36 31L39 31L39 32L42 32L42 33L41 33L41 34L38 34L38 35L40 35L40 36L41 36L41 34L43 34L43 33L44 33L44 32L46 32L46 31L47 31L47 30L46 30L46 27L45 27L45 25L44 25L44 24L46 24L46 25L47 25L47 28L48 28L48 29L49 29L49 28L48 28L48 25L49 25L49 26L50 26L50 25L51 25L51 24L52 24L52 25L53 25L53 24L54 24L54 26L55 26L55 24L54 24L54 23L53 23L53 24L52 24L52 23L51 23L51 22L48 22L48 23L47 23L47 22L45 22L45 21L44 21L44 20L45 20L45 19L42 19L42 18L44 18L44 16L45 16L45 18L46 18L46 19L47 19L47 20L48 20L48 21L49 21L49 20L48 20L48 19L49 19L49 18L50 18L50 19L51 19L51 20L50 20L50 21L51 21L51 20L52 20L52 21L53 21L53 20L52 20L52 19L51 19L51 18L50 18L50 17L49 17L49 16L48 16L48 18L46 18L46 17L47 17L47 14L46 14L46 13L45 13L45 14L46 14L46 15L44 15L44 14L43 14L43 12L45 12L45 11L42 11L42 10L45 10L45 9L44 9L44 8L45 8L45 6L44 6L44 8L43 8L43 6L42 6L42 5L41 5L41 6L40 6L40 7L39 7L39 5ZM46 5L46 7L47 7L47 5ZM16 6L16 7L17 7L17 6ZM20 6L20 7L21 7L21 6ZM22 6L22 8L23 8L23 6ZM25 6L25 8L26 8L26 6ZM27 6L27 7L28 7L28 6ZM30 6L30 7L31 7L31 6ZM41 6L41 8L39 8L39 9L38 9L38 8L37 8L37 7L36 7L36 8L37 8L37 9L38 9L38 10L39 10L39 9L41 9L41 8L42 8L42 6ZM52 6L52 7L53 7L53 6ZM12 8L12 9L14 9L14 10L15 10L15 9L14 9L14 8ZM51 8L51 9L54 9L54 10L56 10L56 8L55 8L55 9L54 9L54 8ZM57 8L57 10L58 10L58 8ZM59 8L59 9L60 9L60 8ZM35 10L35 11L36 11L36 10ZM27 11L27 12L28 12L28 11ZM16 12L16 13L17 13L17 12ZM24 12L24 13L25 13L25 12ZM34 12L34 14L35 14L35 15L33 15L33 14L32 14L32 15L33 15L33 18L32 18L32 17L31 17L31 18L32 18L32 19L33 19L33 18L35 18L35 19L34 19L34 20L37 20L37 19L36 19L36 18L39 18L39 17L38 17L38 15L36 15L36 13L35 13L35 12ZM37 12L37 14L40 14L40 13L42 13L42 12L39 12L39 13L38 13L38 12ZM8 13L8 14L6 14L6 15L7 15L7 16L8 16L8 14L9 14L9 13ZM27 14L27 15L28 15L28 16L29 16L29 17L28 17L28 18L30 18L30 16L29 16L29 15L28 15L28 14ZM41 14L41 16L42 16L42 15L43 15L43 14ZM60 14L60 15L61 15L61 14ZM0 15L0 16L1 16L1 15ZM13 15L13 16L14 16L14 15ZM15 15L15 16L16 16L16 15ZM20 15L20 16L21 16L21 17L22 17L22 19L24 19L24 21L23 21L23 20L22 20L22 21L23 21L23 22L24 22L24 21L32 21L32 20L30 20L30 19L28 19L28 20L26 20L26 19L27 19L27 18L26 18L26 17L27 17L27 16L26 16L26 17L24 17L24 18L23 18L23 17L22 17L22 16L21 16L21 15ZM35 15L35 18L36 18L36 17L37 17L37 16L36 16L36 15ZM54 16L54 17L55 17L55 16ZM13 18L13 19L14 19L14 18ZM58 18L58 20L59 20L59 18ZM41 19L41 20L42 20L42 19ZM17 20L17 21L18 21L18 20ZM56 20L56 21L57 21L57 20ZM58 21L58 22L59 22L59 21ZM6 22L6 23L7 23L7 22ZM42 22L42 23L43 23L43 24L44 24L44 23L43 23L43 22ZM32 23L32 24L33 24L33 23ZM38 23L38 26L37 26L37 27L36 27L36 28L37 28L37 30L40 30L40 31L41 31L41 30L40 30L40 29L41 29L41 28L39 28L39 27L38 27L38 26L39 26L39 24L40 24L40 25L42 25L42 24L40 24L40 23ZM46 23L46 24L47 24L47 23ZM48 23L48 24L49 24L49 23ZM21 25L21 26L23 26L23 25ZM24 25L24 27L23 27L23 28L24 28L24 27L25 27L25 26L26 26L26 25ZM6 26L6 27L7 27L7 26ZM18 26L18 27L19 27L19 26ZM40 26L40 27L43 27L43 26ZM31 27L31 28L32 28L32 27ZM44 27L44 29L45 29L45 27ZM11 28L11 29L12 29L12 31L14 31L14 29L12 29L12 28ZM17 28L17 29L18 29L18 28ZM2 29L2 31L3 31L3 30L4 30L4 29ZM5 29L5 32L8 32L8 29ZM29 29L29 32L32 32L32 29ZM53 29L53 32L56 32L56 29ZM6 30L6 31L7 31L7 30ZM30 30L30 31L31 31L31 30ZM42 30L42 31L43 31L43 32L44 32L44 31L46 31L46 30L44 30L44 31L43 31L43 30ZM54 30L54 31L55 31L55 30ZM60 30L60 31L61 31L61 30ZM25 31L25 32L26 32L26 31ZM13 32L13 34L14 34L14 32ZM35 32L35 33L38 33L38 32ZM47 32L47 34L46 34L46 33L45 33L45 35L46 35L46 36L45 36L45 37L44 37L44 36L43 36L43 37L42 37L42 38L43 38L43 37L44 37L44 38L45 38L45 39L44 39L44 40L45 40L45 41L46 41L46 39L47 39L47 38L45 38L45 37L46 37L46 36L48 36L48 39L49 39L49 36L48 36L48 35L47 35L47 34L49 34L49 32ZM18 33L18 34L19 34L19 35L20 35L20 34L19 34L19 33ZM34 34L34 36L35 36L35 34ZM36 34L36 35L37 35L37 34ZM12 35L12 37L13 37L13 35ZM51 35L51 36L52 36L52 35ZM55 35L55 36L56 36L56 37L57 37L57 36L56 36L56 35ZM8 37L8 38L9 38L9 39L10 39L10 40L11 40L11 39L10 39L10 38L9 38L9 37ZM56 38L56 39L57 39L57 38ZM1 39L1 42L2 42L2 40L3 40L3 39ZM13 39L13 42L14 42L14 39ZM52 39L52 40L51 40L51 41L52 41L52 42L53 42L53 43L52 43L52 44L51 44L51 45L52 45L52 44L53 44L53 43L55 43L55 42L56 42L56 41L55 41L55 40L53 40L53 39ZM17 40L17 41L16 41L16 43L18 43L18 42L17 42L17 41L18 41L18 40ZM24 41L24 43L23 43L23 44L24 44L24 43L26 43L26 42L25 42L25 41ZM37 41L37 42L38 42L38 43L39 43L39 42L38 42L38 41ZM19 42L19 43L20 43L20 42ZM32 42L32 43L33 43L33 45L34 45L34 42ZM43 42L43 43L42 43L42 44L45 44L45 42ZM46 42L46 43L48 43L48 42ZM50 42L50 43L51 43L51 42ZM17 44L17 45L18 45L18 44ZM25 44L25 45L26 45L26 44ZM46 44L46 45L47 45L47 44ZM41 45L41 47L43 47L43 48L41 48L41 49L39 49L39 50L38 50L38 53L37 53L37 54L38 54L38 53L40 53L40 54L41 54L41 53L40 53L40 52L42 52L42 54L43 54L43 51L44 51L44 52L45 52L45 51L46 51L46 52L48 52L48 53L49 53L49 52L48 52L48 51L49 51L49 50L48 50L48 51L47 51L47 50L46 50L46 48L45 48L45 47L43 47L43 46L44 46L44 45ZM14 46L14 47L15 47L15 46ZM23 46L23 47L24 47L24 46ZM33 46L33 47L35 47L35 46ZM56 46L56 47L58 47L58 46ZM12 47L12 48L13 48L13 47ZM6 48L6 49L7 49L7 48ZM23 48L23 49L24 49L24 48ZM30 48L30 49L29 49L29 51L30 51L30 49L32 49L32 48ZM33 48L33 49L34 49L34 48ZM44 48L44 51L45 51L45 48ZM56 48L56 49L59 49L59 48ZM12 49L12 50L11 50L11 53L9 53L9 52L10 52L10 51L8 51L8 53L9 53L9 55L10 55L10 54L11 54L11 53L12 53L12 52L13 52L13 51L12 51L12 50L13 50L13 49ZM17 50L17 51L18 51L18 50ZM39 50L39 52L40 52L40 50ZM41 50L41 51L43 51L43 50ZM3 51L3 52L4 52L4 51ZM15 51L15 52L16 52L16 51ZM32 51L32 52L34 52L34 51ZM29 53L29 56L32 56L32 53ZM53 53L53 56L56 56L56 53ZM20 54L20 55L21 55L21 56L22 56L22 55L21 55L21 54ZM30 54L30 55L31 55L31 54ZM54 54L54 55L55 55L55 54ZM10 57L10 58L9 58L9 60L10 60L10 58L11 58L11 57ZM21 57L21 59L22 59L22 58L24 58L24 59L23 59L23 61L24 61L24 59L25 59L25 61L26 61L26 59L25 59L25 58L26 58L26 57ZM30 57L30 58L31 58L31 57ZM57 57L57 58L56 58L56 59L57 59L57 58L58 58L58 60L60 60L60 57L59 57L59 58L58 58L58 57ZM27 58L27 60L28 60L28 58ZM15 59L15 60L16 60L16 59ZM31 59L31 60L32 60L32 59ZM0 0L0 7L7 7L7 0ZM1 1L1 6L6 6L6 1ZM2 2L2 5L5 5L5 2ZM54 0L54 7L61 7L61 0ZM55 1L55 6L60 6L60 1ZM56 2L56 5L59 5L59 2ZM0 54L0 61L7 61L7 54ZM1 55L1 60L6 60L6 55ZM2 56L2 59L5 59L5 56Z" fill="#000000"/></g></g></svg>
