<?xml version="1.0" encoding="UTF-8"?>
<svg xmlns="http://www.w3.org/2000/svg" version="1.1" width="500" height="500" viewBox="0 0 500 500"><rect x="0" y="0" width="500" height="500" fill="#ffffff"/><g transform="scale(9.434)"><g transform="translate(0,0)"><path fill-rule="evenodd" d="M8 0L8 1L9 1L9 2L8 2L8 5L9 5L9 6L8 6L8 7L9 7L9 6L10 6L10 7L11 7L11 6L12 6L12 7L13 7L13 5L14 5L14 7L15 7L15 8L14 8L14 9L15 9L15 8L16 8L16 11L13 11L13 12L12 12L12 11L11 11L11 12L12 12L12 13L11 13L11 14L10 14L10 12L9 12L9 11L10 11L10 10L12 10L12 8L8 8L8 9L10 9L10 10L9 10L9 11L8 11L8 10L6 10L6 9L7 9L7 8L6 8L6 9L5 9L5 10L4 10L4 8L0 8L0 11L1 11L1 10L3 10L3 12L1 12L1 13L2 13L2 14L4 14L4 15L2 15L2 16L1 16L1 14L0 14L0 16L1 16L1 17L0 17L0 18L1 18L1 19L0 19L0 21L1 21L1 22L0 22L0 25L2 25L2 26L3 26L3 28L4 28L4 29L2 29L2 27L1 27L1 26L0 26L0 29L1 29L1 31L0 31L0 39L1 39L1 38L4 38L4 39L2 39L2 40L5 40L5 41L4 41L4 42L3 42L3 43L2 43L2 42L0 42L0 43L1 43L1 44L3 44L3 45L4 45L4 44L3 44L3 43L9 43L9 42L10 42L10 44L9 44L9 45L8 45L8 46L10 46L10 45L12 45L12 46L11 46L11 47L9 47L9 49L8 49L8 53L9 53L9 52L10 52L10 53L11 53L11 52L10 52L10 49L11 49L11 51L12 51L12 50L13 50L13 51L14 51L14 50L13 50L13 48L14 48L14 46L15 46L15 45L17 45L17 46L18 46L18 48L17 48L17 50L15 50L15 53L18 53L18 52L19 52L19 51L20 51L20 50L21 50L21 53L22 53L22 51L23 51L23 53L24 53L24 51L25 51L25 49L26 49L26 51L27 51L27 52L29 52L29 50L30 50L30 52L31 52L31 53L34 53L34 49L35 49L35 50L38 50L38 51L40 51L40 52L42 52L42 51L44 51L44 50L40 50L40 49L39 49L39 47L38 47L38 46L37 46L37 45L39 45L39 44L40 44L40 45L42 45L42 46L41 46L41 48L44 48L44 49L45 49L45 50L46 50L46 51L45 51L45 52L43 52L43 53L45 53L45 52L46 52L46 53L47 53L47 52L46 52L46 51L48 51L48 49L49 49L49 50L51 50L51 53L52 53L52 49L51 49L51 48L53 48L53 47L51 47L51 48L50 48L50 49L49 49L49 47L50 47L50 46L51 46L51 44L52 44L52 43L51 43L51 42L52 42L52 41L53 41L53 40L52 40L52 41L51 41L51 42L50 42L50 41L49 41L49 40L50 40L50 39L49 39L49 40L47 40L47 39L48 39L48 38L47 38L47 37L46 37L46 36L45 36L45 35L46 35L46 34L47 34L47 36L48 36L48 34L50 34L50 35L49 35L49 36L50 36L50 37L51 37L51 38L52 38L52 39L53 39L53 36L52 36L52 35L51 35L51 34L53 34L53 32L52 32L52 29L51 29L51 31L49 31L49 30L48 30L48 31L49 31L49 32L48 32L48 33L46 33L46 32L47 32L47 31L46 31L46 30L47 30L47 29L49 29L49 27L51 27L51 28L53 28L53 26L51 26L51 25L52 25L52 24L49 24L49 23L51 23L51 22L49 22L49 21L52 21L52 22L53 22L53 21L52 21L52 20L51 20L51 17L48 17L48 13L50 13L50 15L49 15L49 16L50 16L50 15L51 15L51 16L53 16L53 12L52 12L52 10L53 10L53 8L52 8L52 9L51 9L51 8L48 8L48 9L49 9L49 10L46 10L46 8L45 8L45 6L44 6L44 8L43 8L43 9L42 9L42 8L41 8L41 6L42 6L42 7L43 7L43 3L44 3L44 4L45 4L45 3L44 3L44 1L43 1L43 0L42 0L42 1L41 1L41 0L40 0L40 1L39 1L39 4L38 4L38 7L37 7L37 2L38 2L38 0L37 0L37 1L36 1L36 4L35 4L35 1L33 1L33 0L32 0L32 2L31 2L31 3L33 3L33 4L32 4L32 5L33 5L33 4L35 4L35 5L36 5L36 7L35 7L35 6L34 6L34 7L33 7L33 6L32 6L32 7L31 7L31 5L30 5L30 4L27 4L27 3L26 3L26 2L28 2L28 3L29 3L29 2L30 2L30 1L31 1L31 0L28 0L28 1L25 1L25 0L24 0L24 1L23 1L23 0L21 0L21 1L20 1L20 2L21 2L21 1L23 1L23 4L22 4L22 5L21 5L21 3L19 3L19 2L18 2L18 1L17 1L17 2L16 2L16 0L15 0L15 2L16 2L16 4L17 4L17 2L18 2L18 5L19 5L19 6L18 6L18 7L17 7L17 5L16 5L16 7L15 7L15 5L14 5L14 4L13 4L13 3L14 3L14 2L13 2L13 1L14 1L14 0L13 0L13 1L12 1L12 2L13 2L13 3L11 3L11 5L10 5L10 4L9 4L9 3L10 3L10 2L11 2L11 1L9 1L9 0ZM28 1L28 2L29 2L29 1ZM24 2L24 4L23 4L23 5L22 5L22 6L21 6L21 5L20 5L20 4L19 4L19 5L20 5L20 6L19 6L19 8L17 8L17 7L16 7L16 8L17 8L17 9L18 9L18 12L17 12L17 11L16 11L16 12L13 12L13 13L14 13L14 16L13 16L13 18L14 18L14 19L15 19L15 20L14 20L14 21L15 21L15 20L16 20L16 22L14 22L14 23L15 23L15 24L16 24L16 25L17 25L17 26L14 26L14 25L13 25L13 27L12 27L12 28L10 28L10 27L9 27L9 28L10 28L10 29L9 29L9 33L6 33L6 32L8 32L8 29L6 29L6 30L7 30L7 31L5 31L5 30L4 30L4 31L3 31L3 32L2 32L2 31L1 31L1 34L2 34L2 35L4 35L4 36L1 36L1 37L4 37L4 38L5 38L5 35L4 35L4 34L10 34L10 35L12 35L12 34L13 34L13 33L12 33L12 32L13 32L13 31L15 31L15 32L14 32L14 35L15 35L15 36L13 36L13 37L12 37L12 36L11 36L11 37L10 37L10 39L11 39L11 40L14 40L14 42L13 42L13 43L12 43L12 42L11 42L11 44L12 44L12 45L13 45L13 43L14 43L14 42L15 42L15 41L16 41L16 42L18 42L18 43L17 43L17 45L18 45L18 46L21 46L21 47L19 47L19 48L18 48L18 50L17 50L17 51L16 51L16 52L17 52L17 51L19 51L19 48L20 48L20 49L21 49L21 48L22 48L22 49L24 49L24 46L22 46L22 45L19 45L19 44L21 44L21 43L20 43L20 42L21 42L21 41L22 41L22 44L26 44L26 42L25 42L25 41L26 41L26 40L27 40L27 38L28 38L28 42L27 42L27 43L28 43L28 44L29 44L29 47L30 47L30 44L31 44L31 46L33 46L33 48L32 48L32 47L31 47L31 48L32 48L32 49L34 49L34 46L36 46L36 47L35 47L35 48L36 48L36 47L37 47L37 48L38 48L38 47L37 47L37 46L36 46L36 45L37 45L37 44L36 44L36 42L37 42L37 43L38 43L38 44L39 44L39 43L40 43L40 41L41 41L41 40L43 40L43 41L42 41L42 42L41 42L41 44L45 44L45 43L48 43L48 44L49 44L49 45L50 45L50 44L49 44L49 43L50 43L50 42L49 42L49 41L48 41L48 42L45 42L45 41L47 41L47 40L45 40L45 39L46 39L46 37L45 37L45 39L44 39L44 40L43 40L43 39L41 39L41 37L42 37L42 38L43 38L43 37L44 37L44 35L42 35L42 32L43 32L43 30L44 30L44 31L45 31L45 32L44 32L44 34L46 34L46 33L45 33L45 32L46 32L46 31L45 31L45 30L44 30L44 29L43 29L43 28L44 28L44 26L43 26L43 25L44 25L44 24L46 24L46 23L47 23L47 24L48 24L48 23L49 23L49 22L48 22L48 23L47 23L47 21L46 21L46 20L48 20L48 21L49 21L49 20L50 20L50 18L49 18L49 20L48 20L48 17L47 17L47 19L46 19L46 16L47 16L47 12L48 12L48 11L47 11L47 12L45 12L45 11L46 11L46 10L45 10L45 9L44 9L44 10L43 10L43 11L40 11L40 13L39 13L39 12L37 12L37 11L39 11L39 8L40 8L40 6L41 6L41 5L42 5L42 3L43 3L43 2L40 2L40 4L39 4L39 8L38 8L38 10L37 10L37 8L36 8L36 9L33 9L33 7L32 7L32 8L30 8L30 9L32 9L32 10L33 10L33 11L34 11L34 13L33 13L33 12L32 12L32 11L31 11L31 12L30 12L30 11L29 11L29 10L28 10L28 9L26 9L26 10L27 10L27 11L24 11L24 10L25 10L25 9L24 9L24 10L22 10L22 6L23 6L23 8L24 8L24 4L25 4L25 2ZM33 2L33 3L34 3L34 2ZM40 4L40 5L41 5L41 4ZM25 5L25 8L28 8L28 5ZM20 6L20 8L19 8L19 12L18 12L18 13L17 13L17 12L16 12L16 13L17 13L17 14L18 14L18 15L21 15L21 16L22 16L22 15L23 15L23 17L25 17L25 20L24 20L24 18L23 18L23 20L22 20L22 19L21 19L21 18L22 18L22 17L21 17L21 18L20 18L20 21L22 21L22 22L23 22L23 23L22 23L22 24L20 24L20 23L18 23L18 21L17 21L17 24L18 24L18 26L19 26L19 27L18 27L18 28L17 28L17 27L16 27L16 28L15 28L15 27L14 27L14 29L13 29L13 30L11 30L11 29L10 29L10 31L13 31L13 30L15 30L15 31L16 31L16 30L20 30L20 31L22 31L22 30L24 30L24 31L23 31L23 32L22 32L22 34L21 34L21 35L22 35L22 36L23 36L23 35L25 35L25 36L26 36L26 35L27 35L27 36L28 36L28 37L29 37L29 39L30 39L30 40L31 40L31 41L32 41L32 42L33 42L33 45L35 45L35 44L34 44L34 42L36 42L36 41L35 41L35 40L34 40L34 39L31 39L31 38L34 38L34 37L35 37L35 38L36 38L36 37L37 37L37 35L38 35L38 33L39 33L39 36L38 36L38 38L37 38L37 40L38 40L38 41L40 41L40 40L41 40L41 39L39 39L39 36L41 36L41 34L40 34L40 33L41 33L41 32L42 32L42 30L41 30L41 29L40 29L40 30L41 30L41 31L40 31L40 33L39 33L39 30L38 30L38 29L39 29L39 28L38 28L38 27L37 27L37 30L36 30L36 31L35 31L35 29L36 29L36 26L35 26L35 28L34 28L34 27L33 27L33 26L32 26L32 24L33 24L33 25L34 25L34 23L36 23L36 25L37 25L37 26L39 26L39 27L40 27L40 28L42 28L42 27L43 27L43 26L42 26L42 25L43 25L43 24L44 24L44 23L43 23L43 21L42 21L42 17L44 17L44 16L42 16L42 15L45 15L45 16L46 16L46 15L45 15L45 14L46 14L46 13L45 13L45 12L43 12L43 13L44 13L44 14L42 14L42 13L41 13L41 19L40 19L40 18L37 18L37 17L40 17L40 15L39 15L39 13L38 13L38 15L37 15L37 17L36 17L36 15L34 15L34 16L35 16L35 17L33 17L33 15L32 15L32 14L33 14L33 13L32 13L32 12L31 12L31 14L30 14L30 13L29 13L29 11L27 11L27 12L23 12L23 11L22 11L22 10L20 10L20 9L21 9L21 6ZM26 6L26 7L27 7L27 6ZM29 6L29 7L30 7L30 6ZM34 7L34 8L35 8L35 7ZM50 9L50 10L49 10L49 12L50 12L50 13L52 13L52 12L51 12L51 11L50 11L50 10L51 10L51 9ZM5 10L5 11L6 11L6 12L3 12L3 13L4 13L4 14L7 14L7 15L6 15L6 16L7 16L7 17L5 17L5 15L4 15L4 17L3 17L3 16L2 16L2 17L3 17L3 19L1 19L1 21L3 21L3 20L4 20L4 21L6 21L6 22L7 22L7 23L5 23L5 22L4 22L4 24L7 24L7 23L8 23L8 24L9 24L9 26L12 26L12 24L13 24L13 23L12 23L12 22L13 22L13 20L12 20L12 18L11 18L11 17L12 17L12 16L11 16L11 17L10 17L10 16L8 16L8 14L9 14L9 15L10 15L10 14L9 14L9 13L6 13L6 12L7 12L7 11L6 11L6 10ZM34 10L34 11L35 11L35 14L36 14L36 13L37 13L37 12L36 12L36 11L37 11L37 10ZM44 10L44 11L45 11L45 10ZM21 11L21 15L22 15L22 13L23 13L23 15L25 15L25 14L26 14L26 16L27 16L27 17L26 17L26 18L28 18L28 19L30 19L30 20L29 20L29 22L28 22L28 23L26 23L26 22L27 22L27 20L26 20L26 22L25 22L25 21L24 21L24 20L23 20L23 22L25 22L25 23L23 23L23 24L22 24L22 25L24 25L24 24L25 24L25 23L26 23L26 24L28 24L28 23L29 23L29 25L30 25L30 26L31 26L31 27L32 27L32 28L33 28L33 27L32 27L32 26L31 26L31 23L30 23L30 20L31 20L31 21L33 21L33 22L32 22L32 23L34 23L34 22L36 22L36 23L37 23L37 22L38 22L38 24L40 24L40 25L39 25L39 26L40 26L40 27L42 27L42 26L41 26L41 25L42 25L42 24L43 24L43 23L42 23L42 24L41 24L41 22L42 22L42 21L40 21L40 20L39 20L39 19L37 19L37 20L36 20L36 17L35 17L35 19L31 19L31 18L33 18L33 17L31 17L31 16L32 16L32 15L31 15L31 16L30 16L30 17L29 17L29 15L30 15L30 14L29 14L29 15L27 15L27 13L28 13L28 12L27 12L27 13L23 13L23 12L22 12L22 11ZM19 13L19 14L20 14L20 13ZM11 14L11 15L13 15L13 14ZM51 14L51 15L52 15L52 14ZM15 15L15 16L14 16L14 17L16 17L16 18L17 18L17 19L18 19L18 18L19 18L19 17L18 17L18 16L17 16L17 15ZM38 15L38 16L39 16L39 15ZM16 16L16 17L17 17L17 16ZM7 17L7 18L5 18L5 19L7 19L7 20L6 20L6 21L7 21L7 20L9 20L9 22L10 22L10 23L11 23L11 22L12 22L12 20L11 20L11 18L10 18L10 17ZM8 18L8 19L10 19L10 18ZM44 18L44 19L43 19L43 20L44 20L44 21L45 21L45 20L46 20L46 19L45 19L45 18ZM44 19L44 20L45 20L45 19ZM10 20L10 22L11 22L11 20ZM37 20L37 21L36 21L36 22L37 22L37 21L39 21L39 22L40 22L40 21L39 21L39 20ZM2 22L2 23L1 23L1 24L3 24L3 22ZM45 22L45 23L46 23L46 22ZM19 24L19 26L20 26L20 27L22 27L22 26L20 26L20 24ZM5 25L5 28L8 28L8 25ZM25 25L25 28L28 28L28 25ZM45 25L45 28L48 28L48 25ZM49 25L49 26L50 26L50 25ZM6 26L6 27L7 27L7 26ZM26 26L26 27L27 27L27 26ZM46 26L46 27L47 27L47 26ZM29 27L29 28L30 28L30 27ZM18 28L18 29L20 29L20 30L22 30L22 29L24 29L24 30L25 30L25 31L24 31L24 33L25 33L25 35L26 35L26 33L28 33L28 34L29 34L29 37L30 37L30 38L31 38L31 37L30 37L30 36L31 36L31 35L30 35L30 32L29 32L29 31L28 31L28 30L27 30L27 32L25 32L25 31L26 31L26 29L24 29L24 28L22 28L22 29L21 29L21 28ZM15 29L15 30L16 30L16 29ZM29 29L29 30L30 30L30 31L31 31L31 34L33 34L33 36L32 36L32 37L33 37L33 36L34 36L34 34L35 34L35 35L37 35L37 33L38 33L38 31L37 31L37 32L36 32L36 34L35 34L35 33L34 33L34 32L33 32L33 31L34 31L34 30L33 30L33 29L32 29L32 31L31 31L31 29ZM17 31L17 32L15 32L15 35L16 35L16 37L17 37L17 38L16 38L16 39L17 39L17 41L18 41L18 40L19 40L19 39L21 39L21 40L22 40L22 39L23 39L23 37L22 37L22 39L21 39L21 36L20 36L20 35L16 35L16 33L17 33L17 34L18 34L18 31ZM4 32L4 33L5 33L5 32ZM10 32L10 33L11 33L11 34L12 34L12 33L11 33L11 32ZM19 32L19 33L21 33L21 32ZM28 32L28 33L29 33L29 32ZM51 32L51 33L52 33L52 32ZM2 33L2 34L3 34L3 33ZM33 33L33 34L34 34L34 33ZM22 34L22 35L23 35L23 34ZM6 35L6 36L8 36L8 37L9 37L9 36L8 36L8 35ZM50 35L50 36L51 36L51 35ZM17 36L17 37L18 37L18 36ZM35 36L35 37L36 37L36 36ZM42 36L42 37L43 37L43 36ZM6 37L6 38L7 38L7 37ZM11 37L11 38L12 38L12 37ZM13 37L13 38L14 38L14 40L15 40L15 38L14 38L14 37ZM19 37L19 38L20 38L20 37ZM25 37L25 38L26 38L26 37ZM8 38L8 39L5 39L5 40L8 40L8 39L9 39L9 38ZM38 39L38 40L39 40L39 39ZM23 40L23 42L24 42L24 43L25 43L25 42L24 42L24 41L25 41L25 40ZM33 40L33 41L34 41L34 40ZM44 40L44 41L45 41L45 40ZM6 41L6 42L8 42L8 41ZM19 41L19 42L20 42L20 41ZM38 42L38 43L39 43L39 42ZM48 42L48 43L49 43L49 42ZM29 43L29 44L30 44L30 43ZM6 44L6 45L7 45L7 44ZM25 45L25 48L28 48L28 45ZM43 45L43 46L44 46L44 45ZM45 45L45 48L48 48L48 45ZM52 45L52 46L53 46L53 45ZM12 46L12 48L11 48L11 49L12 49L12 48L13 48L13 46ZM26 46L26 47L27 47L27 46ZM46 46L46 47L47 47L47 46ZM22 47L22 48L23 48L23 47ZM29 48L29 49L30 49L30 50L31 50L31 51L33 51L33 50L31 50L31 49L30 49L30 48ZM27 49L27 51L28 51L28 49ZM23 50L23 51L24 51L24 50ZM35 51L35 53L36 53L36 51ZM49 51L49 52L48 52L48 53L50 53L50 51ZM12 52L12 53L13 53L13 52ZM38 52L38 53L39 53L39 52ZM0 0L0 7L7 7L7 0ZM1 1L1 6L6 6L6 1ZM2 2L2 5L5 5L5 2ZM46 0L46 7L53 7L53 0ZM47 1L47 6L52 6L52 1ZM48 2L48 5L51 5L51 2ZM0 46L0 53L7 53L7 46ZM1 47L1 52L6 52L6 47ZM2 48L2 51L5 51L5 48Z" fill="#000000"/></g></g></svg>
