<?xml version="1.0" encoding="UTF-8"?>
<svg xmlns="http://www.w3.org/2000/svg" version="1.1" width="500" height="500" viewBox="0 0 500 500"><rect x="0" y="0" width="500" height="500" fill="#ffffff"/><g transform="scale(9.434)"><g transform="translate(0,0)"><path fill-rule="evenodd" d="M8 0L8 1L9 1L9 0ZM10 0L10 3L9 3L9 2L8 2L8 5L9 5L9 6L8 6L8 7L9 7L9 6L10 6L10 8L8 8L8 10L6 10L6 11L8 11L8 12L4 12L4 13L7 13L7 14L5 14L5 15L4 15L4 14L3 14L3 11L0 11L0 14L3 14L3 16L6 16L6 17L7 17L7 18L5 18L5 17L4 17L4 18L5 18L5 19L4 19L4 20L5 20L5 21L4 21L4 22L3 22L3 21L2 21L2 20L3 20L3 17L2 17L2 18L1 18L1 16L2 16L2 15L1 15L1 16L0 16L0 18L1 18L1 19L0 19L0 20L1 20L1 21L0 21L0 22L1 22L1 23L2 23L2 25L4 25L4 26L1 26L1 27L0 27L0 31L1 31L1 32L0 32L0 34L1 34L1 35L2 35L2 36L1 36L1 38L0 38L0 41L1 41L1 42L0 42L0 43L1 43L1 44L3 44L3 45L4 45L4 44L3 44L3 43L7 43L7 44L6 44L6 45L7 45L7 44L8 44L8 46L9 46L9 47L11 47L11 48L9 48L9 49L8 49L8 53L9 53L9 51L10 51L10 52L11 52L11 51L12 51L12 52L14 52L14 53L18 53L18 52L19 52L19 53L20 53L20 52L19 52L19 51L20 51L20 50L21 50L21 51L23 51L23 52L24 52L24 50L23 50L23 49L22 49L22 48L24 48L24 49L26 49L26 51L25 51L25 53L27 53L27 52L26 52L26 51L27 51L27 49L28 49L28 52L29 52L29 53L33 53L33 52L34 52L34 53L36 53L36 49L37 49L37 50L38 50L38 52L41 52L41 51L42 51L42 52L43 52L43 53L45 53L45 52L46 52L46 53L47 53L47 52L46 52L46 51L48 51L48 49L49 49L49 47L50 47L50 46L51 46L51 45L52 45L52 46L53 46L53 45L52 45L52 44L51 44L51 42L52 42L52 40L51 40L51 42L49 42L49 44L48 44L48 43L46 43L46 44L42 44L42 43L38 43L38 42L37 42L37 41L38 41L38 40L37 40L37 41L33 41L33 40L36 40L36 39L37 39L37 38L36 38L36 39L32 39L32 38L30 38L30 37L29 37L29 35L30 35L30 34L31 34L31 32L30 32L30 31L29 31L29 29L30 29L30 28L31 28L31 29L33 29L33 28L34 28L34 30L33 30L33 31L32 31L32 30L31 30L31 31L32 31L32 32L33 32L33 33L32 33L32 35L31 35L31 37L32 37L32 36L33 36L33 37L35 37L35 35L36 35L36 37L38 37L38 39L39 39L39 42L40 42L40 40L41 40L41 41L43 41L43 42L45 42L45 41L46 41L46 42L47 42L47 41L49 41L49 40L50 40L50 39L49 39L49 40L47 40L47 39L48 39L48 38L47 38L47 37L46 37L46 34L45 34L45 32L44 32L44 30L45 30L45 31L46 31L46 33L47 33L47 31L46 31L46 30L45 30L45 29L50 29L50 28L49 28L49 27L51 27L51 28L53 28L53 26L51 26L51 24L49 24L49 23L51 23L51 22L49 22L49 23L48 23L48 22L46 22L46 24L44 24L44 23L45 23L45 22L44 22L44 21L45 21L45 20L46 20L46 21L48 21L48 20L49 20L49 19L50 19L50 21L52 21L52 22L53 22L53 21L52 21L52 20L51 20L51 19L50 19L50 18L51 18L51 17L48 17L48 14L47 14L47 16L46 16L46 15L45 15L45 16L46 16L46 19L45 19L45 18L44 18L44 19L43 19L43 20L42 20L42 17L44 17L44 14L46 14L46 12L47 12L47 13L50 13L50 15L49 15L49 16L50 16L50 15L51 15L51 14L52 14L52 15L53 15L53 12L52 12L52 10L53 10L53 8L52 8L52 9L51 9L51 8L48 8L48 9L49 9L49 10L46 10L46 8L45 8L45 6L44 6L44 8L43 8L43 9L42 9L42 8L41 8L41 6L42 6L42 7L43 7L43 3L44 3L44 4L45 4L45 3L44 3L44 1L43 1L43 0L39 0L39 1L38 1L38 0L37 0L37 1L38 1L38 2L39 2L39 3L41 3L41 2L43 2L43 3L42 3L42 5L40 5L40 4L38 4L38 7L37 7L37 6L36 6L36 7L35 7L35 6L34 6L34 5L33 5L33 4L34 4L34 3L36 3L36 4L35 4L35 5L36 5L36 4L37 4L37 2L36 2L36 1L34 1L34 0L33 0L33 1L31 1L31 0L29 0L29 3L30 3L30 4L31 4L31 5L33 5L33 6L32 6L32 7L31 7L31 6L30 6L30 5L29 5L29 4L28 4L28 3L26 3L26 2L28 2L28 1L27 1L27 0L24 0L24 2L25 2L25 4L24 4L24 3L23 3L23 2L21 2L21 3L20 3L20 2L19 2L19 1L17 1L17 0L16 0L16 2L15 2L15 1L14 1L14 2L12 2L12 1L13 1L13 0ZM22 0L22 1L23 1L23 0ZM39 1L39 2L41 2L41 1ZM14 2L14 3L12 3L12 4L10 4L10 6L11 6L11 7L12 7L12 8L10 8L10 9L9 9L9 10L8 10L8 11L10 11L10 12L8 12L8 13L10 13L10 14L8 14L8 15L6 15L6 16L9 16L9 17L10 17L10 18L9 18L9 20L8 20L8 21L6 21L6 22L5 22L5 23L3 23L3 24L5 24L5 23L6 23L6 24L7 24L7 23L6 23L6 22L8 22L8 23L9 23L9 22L10 22L10 18L12 18L12 20L11 20L11 22L13 22L13 23L10 23L10 24L11 24L11 26L9 26L9 28L10 28L10 29L8 29L8 30L7 30L7 29L6 29L6 30L5 30L5 29L4 29L4 30L3 30L3 31L2 31L2 32L3 32L3 33L1 33L1 34L2 34L2 35L4 35L4 34L5 34L5 37L4 37L4 38L5 38L5 39L6 39L6 40L5 40L5 41L3 41L3 40L1 40L1 41L3 41L3 42L2 42L2 43L3 43L3 42L5 42L5 41L6 41L6 42L7 42L7 43L9 43L9 46L11 46L11 47L12 47L12 46L13 46L13 45L14 45L14 46L15 46L15 47L13 47L13 48L12 48L12 49L11 49L11 50L12 50L12 51L13 51L13 49L16 49L16 50L18 50L18 47L17 47L17 46L19 46L19 47L20 47L20 48L22 48L22 47L23 47L23 46L21 46L21 44L23 44L23 45L24 45L24 44L29 44L29 46L30 46L30 44L29 44L29 43L31 43L31 41L32 41L32 42L33 42L33 41L32 41L32 39L29 39L29 38L28 38L28 37L27 37L27 36L28 36L28 35L27 35L27 34L26 34L26 35L23 35L23 34L21 34L21 33L22 33L22 32L23 32L23 33L24 33L24 34L25 34L25 33L28 33L28 34L29 34L29 33L30 33L30 32L29 32L29 31L28 31L28 29L27 29L27 30L25 30L25 29L24 29L24 27L23 27L23 26L22 26L22 27L21 27L21 26L20 26L20 25L19 25L19 26L17 26L17 24L16 24L16 22L17 22L17 21L18 21L18 22L19 22L19 23L18 23L18 24L21 24L21 23L20 23L20 22L21 22L21 21L20 21L20 22L19 22L19 20L20 20L20 19L21 19L21 20L22 20L22 19L23 19L23 18L24 18L24 20L25 20L25 19L27 19L27 21L28 21L28 19L30 19L30 21L32 21L32 22L31 22L31 23L30 23L30 22L27 22L27 23L26 23L26 21L25 21L25 23L23 23L23 22L24 22L24 21L22 21L22 23L23 23L23 24L22 24L22 25L24 25L24 24L25 24L25 23L26 23L26 24L27 24L27 23L30 23L30 24L32 24L32 27L31 27L31 28L32 28L32 27L36 27L36 29L35 29L35 30L36 30L36 31L37 31L37 30L36 30L36 29L38 29L38 30L40 30L40 29L41 29L41 30L42 30L42 32L41 32L41 34L40 34L40 33L39 33L39 32L36 32L36 33L35 33L35 31L34 31L34 33L33 33L33 36L34 36L34 34L36 34L36 35L37 35L37 33L38 33L38 36L39 36L39 34L40 34L40 37L39 37L39 39L40 39L40 38L41 38L41 37L42 37L42 38L43 38L43 37L44 37L44 35L42 35L42 32L43 32L43 30L44 30L44 29L41 29L41 28L42 28L42 26L43 26L43 28L44 28L44 26L43 26L43 25L44 25L44 24L43 24L43 23L42 23L42 20L41 20L41 21L40 21L40 20L39 20L39 21L38 21L38 19L37 19L37 20L36 20L36 19L34 19L34 18L33 18L33 17L34 17L34 16L35 16L35 17L37 17L37 18L40 18L40 19L41 19L41 16L38 16L38 17L37 17L37 15L38 15L38 13L39 13L39 15L40 15L40 13L42 13L42 14L41 14L41 15L42 15L42 16L43 16L43 15L42 15L42 14L44 14L44 12L46 12L46 10L45 10L45 9L44 9L44 10L43 10L43 12L42 12L42 11L40 11L40 13L39 13L39 9L40 9L40 10L41 10L41 9L40 9L40 6L39 6L39 7L38 7L38 8L39 8L39 9L38 9L38 10L35 10L35 9L37 9L37 8L34 8L34 6L33 6L33 7L32 7L32 8L31 8L31 9L34 9L34 10L33 10L33 12L32 12L32 13L31 13L31 12L30 12L30 13L29 13L29 12L28 12L28 13L27 13L27 14L26 14L26 13L25 13L25 12L27 12L27 11L29 11L29 10L27 10L27 9L23 9L23 12L22 12L22 11L21 11L21 10L22 10L22 6L21 6L21 9L19 9L19 8L20 8L20 6L19 6L19 7L18 7L18 6L17 6L17 7L16 7L16 5L17 5L17 4L18 4L18 2L16 2L16 3L15 3L15 2ZM30 2L30 3L31 3L31 2ZM33 2L33 3L32 3L32 4L33 4L33 3L34 3L34 2ZM16 3L16 4L17 4L17 3ZM22 3L22 4L21 4L21 5L22 5L22 4L23 4L23 3ZM13 4L13 6L12 6L12 7L13 7L13 10L12 10L12 9L10 9L10 10L12 10L12 11L11 11L11 15L9 15L9 16L10 16L10 17L11 17L11 16L12 16L12 17L13 17L13 18L14 18L14 19L15 19L15 21L14 21L14 20L12 20L12 21L13 21L13 22L14 22L14 23L15 23L15 22L16 22L16 20L19 20L19 17L21 17L21 19L22 19L22 17L21 17L21 16L23 16L23 17L26 17L26 16L25 16L25 15L26 15L26 14L25 14L25 13L22 13L22 12L21 12L21 11L18 11L18 10L17 10L17 11L16 11L16 9L17 9L17 8L18 8L18 7L17 7L17 8L16 8L16 7L15 7L15 6L14 6L14 4ZM19 4L19 5L20 5L20 4ZM23 5L23 7L24 7L24 5ZM25 5L25 8L28 8L28 5ZM13 6L13 7L14 7L14 6ZM26 6L26 7L27 7L27 6ZM29 6L29 8L30 8L30 6ZM0 8L0 10L4 10L4 8ZM6 8L6 9L7 9L7 8ZM14 8L14 10L13 10L13 11L12 11L12 15L13 15L13 16L14 16L14 18L15 18L15 17L16 17L16 18L17 18L17 19L18 19L18 17L19 17L19 15L20 15L20 16L21 16L21 15L23 15L23 16L24 16L24 15L23 15L23 14L22 14L22 13L21 13L21 14L20 14L20 12L19 12L19 14L18 14L18 11L17 11L17 12L16 12L16 11L15 11L15 12L14 12L14 10L15 10L15 8ZM50 9L50 10L49 10L49 11L50 11L50 12L51 12L51 13L52 13L52 12L51 12L51 9ZM24 10L24 11L26 11L26 10ZM31 10L31 11L32 11L32 10ZM34 10L34 12L33 12L33 13L32 13L32 14L33 14L33 15L31 15L31 14L30 14L30 15L29 15L29 13L28 13L28 15L27 15L27 19L28 19L28 17L29 17L29 18L30 18L30 17L29 17L29 16L30 16L30 15L31 15L31 17L33 17L33 16L34 16L34 14L33 14L33 13L34 13L34 12L36 12L36 13L35 13L35 14L36 14L36 13L37 13L37 12L38 12L38 11L35 11L35 10ZM44 10L44 11L45 11L45 10ZM1 12L1 13L2 13L2 12ZM13 13L13 14L14 14L14 16L15 16L15 15L17 15L17 14L16 14L16 13L15 13L15 14L14 14L14 13ZM28 15L28 16L29 16L29 15ZM52 16L52 17L53 17L53 16ZM47 17L47 19L46 19L46 20L48 20L48 17ZM7 18L7 19L5 19L5 20L7 20L7 19L8 19L8 18ZM31 18L31 20L32 20L32 18ZM1 19L1 20L2 20L2 19ZM44 19L44 20L43 20L43 21L44 21L44 20L45 20L45 19ZM34 20L34 21L35 21L35 20ZM36 21L36 22L35 22L35 23L36 23L36 24L35 24L35 25L37 25L37 27L38 27L38 28L41 28L41 27L39 27L39 26L40 26L40 24L39 24L39 25L37 25L37 23L38 23L38 22L37 22L37 21ZM32 22L32 24L33 24L33 23L34 23L34 22ZM36 22L36 23L37 23L37 22ZM39 22L39 23L41 23L41 24L42 24L42 25L41 25L41 26L42 26L42 25L43 25L43 24L42 24L42 23L41 23L41 22ZM47 23L47 24L48 24L48 23ZM52 24L52 25L53 25L53 24ZM5 25L5 28L8 28L8 25ZM12 25L12 28L11 28L11 27L10 27L10 28L11 28L11 29L10 29L10 30L12 30L12 29L13 29L13 28L14 28L14 30L13 30L13 31L12 31L12 36L15 36L15 37L17 37L17 36L16 36L16 35L18 35L18 38L19 38L19 41L18 41L18 40L17 40L17 38L16 38L16 39L15 39L15 40L14 40L14 37L12 37L12 38L13 38L13 40L12 40L12 39L11 39L11 37L8 37L8 34L9 34L9 35L11 35L11 32L10 32L10 31L9 31L9 30L8 30L8 31L9 31L9 32L10 32L10 34L9 34L9 33L8 33L8 32L6 32L6 33L5 33L5 34L6 34L6 35L7 35L7 36L6 36L6 37L7 37L7 38L6 38L6 39L7 39L7 40L6 40L6 41L7 41L7 40L8 40L8 42L9 42L9 43L12 43L12 44L13 44L13 43L14 43L14 44L15 44L15 46L16 46L16 44L17 44L17 43L15 43L15 42L13 42L13 40L14 40L14 41L15 41L15 40L17 40L17 41L16 41L16 42L18 42L18 43L19 43L19 42L20 42L20 38L21 38L21 40L23 40L23 41L24 41L24 42L25 42L25 41L26 41L26 42L27 42L27 40L28 40L28 43L29 43L29 42L30 42L30 41L29 41L29 40L28 40L28 38L27 38L27 40L25 40L25 41L24 41L24 40L23 40L23 39L22 39L22 38L23 38L23 37L24 37L24 36L23 36L23 37L22 37L22 38L21 38L21 36L20 36L20 35L21 35L21 34L20 34L20 35L18 35L18 34L17 34L17 32L18 32L18 31L20 31L20 33L21 33L21 32L22 32L22 31L23 31L23 32L24 32L24 31L25 31L25 32L27 32L27 31L25 31L25 30L24 30L24 29L23 29L23 30L22 30L22 28L23 28L23 27L22 27L22 28L21 28L21 31L20 31L20 30L19 30L19 29L20 29L20 28L19 28L19 27L20 27L20 26L19 26L19 27L18 27L18 28L16 28L16 27L17 27L17 26L15 26L15 25ZM25 25L25 28L28 28L28 25ZM29 25L29 26L31 26L31 25ZM33 25L33 26L34 26L34 25ZM45 25L45 28L48 28L48 25ZM49 25L49 26L50 26L50 25ZM6 26L6 27L7 27L7 26ZM14 26L14 27L15 27L15 26ZM26 26L26 27L27 27L27 26ZM46 26L46 27L47 27L47 26ZM2 27L2 29L1 29L1 30L2 30L2 29L3 29L3 28L4 28L4 27ZM18 28L18 29L19 29L19 28ZM15 29L15 31L13 31L13 34L15 34L15 35L16 35L16 32L15 32L15 31L17 31L17 30L16 30L16 29ZM6 30L6 31L7 31L7 30ZM23 30L23 31L24 31L24 30ZM48 30L48 31L49 31L49 32L48 32L48 34L47 34L47 36L49 36L49 37L51 37L51 38L52 38L52 39L53 39L53 36L52 36L52 35L51 35L51 34L53 34L53 33L51 33L51 32L52 32L52 30L51 30L51 31L49 31L49 30ZM3 31L3 32L4 32L4 31ZM14 32L14 33L15 33L15 32ZM28 32L28 33L29 33L29 32ZM6 33L6 34L8 34L8 33ZM49 33L49 34L48 34L48 35L49 35L49 34L51 34L51 33ZM50 35L50 36L51 36L51 35ZM19 36L19 37L20 37L20 36ZM42 36L42 37L43 37L43 36ZM25 37L25 38L26 38L26 37ZM45 37L45 39L46 39L46 37ZM2 38L2 39L3 39L3 38ZM9 38L9 39L8 39L8 40L9 40L9 42L12 42L12 41L11 41L11 39L10 39L10 38ZM41 39L41 40L43 40L43 41L44 41L44 39ZM46 40L46 41L47 41L47 40ZM21 41L21 42L22 42L22 41ZM36 42L36 43L35 43L35 45L34 45L34 44L33 44L33 43L32 43L32 44L31 44L31 45L34 45L34 46L33 46L33 48L31 48L31 47L32 47L32 46L31 46L31 47L30 47L30 48L29 48L29 49L30 49L30 50L29 50L29 52L30 52L30 50L32 50L32 51L31 51L31 52L32 52L32 51L34 51L34 52L35 52L35 48L36 48L36 47L37 47L37 46L38 46L38 48L39 48L39 49L40 49L40 50L39 50L39 51L41 51L41 50L43 50L43 51L44 51L44 52L45 52L45 51L46 51L46 50L45 50L45 49L44 49L44 48L43 48L43 47L42 47L42 44L41 44L41 45L40 45L40 44L39 44L39 45L37 45L37 44L36 44L36 43L37 43L37 42ZM20 43L20 44L19 44L19 46L20 46L20 44L21 44L21 43ZM10 44L10 45L11 45L11 44ZM49 44L49 45L51 45L51 44ZM25 45L25 48L28 48L28 45ZM35 45L35 46L34 46L34 47L35 47L35 46L37 46L37 45ZM43 45L43 46L44 46L44 45ZM45 45L45 48L48 48L48 45ZM26 46L26 47L27 47L27 46ZM39 46L39 47L41 47L41 46ZM46 46L46 47L47 47L47 46ZM16 47L16 49L17 49L17 47ZM30 48L30 49L31 49L31 48ZM33 48L33 49L34 49L34 48ZM50 48L50 49L51 49L51 50L49 50L49 51L51 51L51 53L52 53L52 49L53 49L53 48ZM19 49L19 50L20 50L20 49ZM14 50L14 52L15 52L15 50ZM16 51L16 52L17 52L17 51ZM21 52L21 53L22 53L22 52ZM48 52L48 53L49 53L49 52ZM0 0L0 7L7 7L7 0ZM1 1L1 6L6 6L6 1ZM2 2L2 5L5 5L5 2ZM46 0L46 7L53 7L53 0ZM47 1L47 6L52 6L52 1ZM48 2L48 5L51 5L51 2ZM0 46L0 53L7 53L7 46ZM1 47L1 52L6 52L6 47ZM2 48L2 51L5 51L5 48Z" fill="#000000"/></g></g></svg>
