<?xml version="1.0" encoding="UTF-8"?>
<svg xmlns="http://www.w3.org/2000/svg" version="1.1" width="500" height="500" viewBox="0 0 500 500"><rect x="0" y="0" width="500" height="500" fill="#ffffff"/><g transform="scale(8.197)"><g transform="translate(0,0)"><path fill-rule="evenodd" d="M9 0L9 1L8 1L8 2L9 2L9 3L8 3L8 4L10 4L10 5L11 5L11 4L10 4L10 2L11 2L11 3L12 3L12 4L13 4L13 5L15 5L15 6L14 6L14 8L12 8L12 9L11 9L11 8L10 8L10 10L9 10L9 8L6 8L6 9L7 9L7 10L5 10L5 8L0 8L0 10L1 10L1 13L0 13L0 15L1 15L1 16L0 16L0 18L2 18L2 20L1 20L1 19L0 19L0 21L1 21L1 23L0 23L0 25L2 25L2 28L3 28L3 29L1 29L1 26L0 26L0 29L1 29L1 30L0 30L0 31L2 31L2 32L0 32L0 34L1 34L1 36L0 36L0 37L1 37L1 36L2 36L2 39L1 39L1 40L3 40L3 41L1 41L1 42L0 42L0 44L1 44L1 42L2 42L2 44L6 44L6 45L7 45L7 46L5 46L5 45L4 45L4 46L2 46L2 45L0 45L0 47L1 47L1 48L3 48L3 47L4 47L4 46L5 46L5 48L4 48L4 49L2 49L2 51L0 51L0 53L4 53L4 52L5 52L5 51L7 51L7 52L6 52L6 53L7 53L7 52L9 52L9 53L8 53L8 55L9 55L9 56L8 56L8 61L9 61L9 60L10 60L10 61L11 61L11 60L12 60L12 61L13 61L13 60L14 60L14 58L15 58L15 57L17 57L17 58L18 58L18 59L17 59L17 60L16 60L16 61L17 61L17 60L18 60L18 61L22 61L22 58L23 58L23 60L25 60L25 61L26 61L26 60L25 60L25 59L26 59L26 58L25 58L25 57L30 57L30 58L29 58L29 59L27 59L27 61L28 61L28 60L30 60L30 61L32 61L32 60L33 60L33 61L34 61L34 58L33 58L33 59L32 59L32 58L31 58L31 57L33 57L33 56L34 56L34 57L35 57L35 56L34 56L34 53L33 53L33 52L32 52L32 51L33 51L33 48L34 48L34 47L31 47L31 46L29 46L29 45L32 45L32 46L33 46L33 45L35 45L35 44L36 44L36 47L39 47L39 48L42 48L42 49L40 49L40 52L38 52L38 53L39 53L39 54L37 54L37 56L36 56L36 58L35 58L35 60L36 60L36 61L37 61L37 60L36 60L36 58L38 58L38 59L41 59L41 58L43 58L43 59L42 59L42 60L43 60L43 59L44 59L44 60L45 60L45 58L43 58L43 56L41 56L41 55L42 55L42 54L43 54L43 55L44 55L44 56L45 56L45 57L46 57L46 55L47 55L47 54L43 54L43 53L42 53L42 54L41 54L41 55L39 55L39 54L40 54L40 52L41 52L41 50L43 50L43 49L44 49L44 50L45 50L45 51L44 51L44 52L45 52L45 53L46 53L46 52L48 52L48 53L49 53L49 52L48 52L48 51L49 51L49 48L51 48L51 50L50 50L50 53L51 53L51 54L50 54L50 55L49 55L49 54L48 54L48 55L49 55L49 56L48 56L48 58L46 58L46 59L48 59L48 58L50 58L50 59L51 59L51 58L53 58L53 59L54 59L54 60L55 60L55 61L56 61L56 60L55 60L55 59L56 59L56 58L57 58L57 61L61 61L61 57L60 57L60 60L58 60L58 59L59 59L59 58L58 58L58 57L59 57L59 56L58 56L58 54L57 54L57 52L56 52L56 49L57 49L57 51L61 51L61 50L58 50L58 49L59 49L59 48L58 48L58 49L57 49L57 48L53 48L53 46L50 46L50 45L49 45L49 44L47 44L47 46L46 46L46 43L41 43L41 42L43 42L43 41L44 41L44 42L45 42L45 41L44 41L44 40L43 40L43 39L45 39L45 40L46 40L46 41L49 41L49 42L48 42L48 43L49 43L49 42L50 42L50 43L55 43L55 45L54 45L54 44L53 44L53 45L54 45L54 47L55 47L55 45L57 45L57 46L56 46L56 47L57 47L57 46L58 46L58 47L59 47L59 46L60 46L60 49L61 49L61 46L60 46L60 45L61 45L61 42L60 42L60 43L59 43L59 42L57 42L57 43L55 43L55 40L56 40L56 41L61 41L61 38L60 38L60 35L61 35L61 34L60 34L60 33L61 33L61 26L60 26L60 25L59 25L59 24L57 24L57 23L59 23L59 22L60 22L60 24L61 24L61 22L60 22L60 21L61 21L61 18L58 18L58 17L59 17L59 16L58 16L58 17L56 17L56 16L57 16L57 15L56 15L56 14L55 14L55 13L56 13L56 12L58 12L58 13L59 13L59 12L60 12L60 11L61 11L61 10L60 10L60 11L59 11L59 9L60 9L60 8L59 8L59 9L58 9L58 8L57 8L57 9L56 9L56 8L55 8L55 9L54 9L54 8L52 8L52 7L53 7L53 6L52 6L52 7L51 7L51 5L52 5L52 4L53 4L53 0L51 0L51 2L50 2L50 1L49 1L49 0L48 0L48 1L46 1L46 0L45 0L45 2L42 2L42 1L44 1L44 0L41 0L41 2L40 2L40 3L39 3L39 1L40 1L40 0L39 0L39 1L38 1L38 3L35 3L35 4L36 4L36 5L35 5L35 6L34 6L34 7L33 7L33 4L34 4L34 2L35 2L35 1L36 1L36 2L37 2L37 1L36 1L36 0L35 0L35 1L34 1L34 2L32 2L32 3L33 3L33 4L29 4L29 3L31 3L31 2L30 2L30 1L29 1L29 2L26 2L26 3L27 3L27 4L24 4L24 2L22 2L22 0L21 0L21 3L20 3L20 2L18 2L18 4L17 4L17 3L16 3L16 2L15 2L15 1L16 1L16 0L15 0L15 1L14 1L14 0L12 0L12 1L14 1L14 2L15 2L15 3L16 3L16 4L13 4L13 2L11 2L11 0ZM23 0L23 1L24 1L24 0ZM26 0L26 1L28 1L28 0ZM31 0L31 1L33 1L33 0ZM48 2L48 3L47 3L47 4L45 4L45 3L44 3L44 4L45 4L45 5L47 5L47 7L46 7L46 6L45 6L45 8L44 8L44 6L43 6L43 5L42 5L42 3L40 3L40 4L38 4L38 5L36 5L36 6L35 6L35 7L34 7L34 8L33 8L33 9L30 9L30 11L31 11L31 12L29 12L29 14L30 14L30 13L31 13L31 12L32 12L32 11L31 11L31 10L33 10L33 12L34 12L34 14L35 14L35 15L34 15L34 16L37 16L37 17L33 17L33 13L32 13L32 15L31 15L31 16L32 16L32 17L28 17L28 18L25 18L25 20L24 20L24 19L23 19L23 20L22 20L22 21L23 21L23 22L22 22L22 23L21 23L21 21L20 21L20 20L19 20L19 19L20 19L20 18L24 18L24 17L23 17L23 14L24 14L24 13L25 13L25 17L27 17L27 16L26 16L26 15L28 15L28 16L30 16L30 15L28 15L28 13L27 13L27 12L28 12L28 11L29 11L29 9L28 9L28 8L27 8L27 7L28 7L28 6L27 6L27 5L28 5L28 4L27 4L27 5L25 5L25 7L24 7L24 6L23 6L23 5L24 5L24 4L23 4L23 3L22 3L22 4L18 4L18 6L17 6L17 4L16 4L16 6L15 6L15 7L16 7L16 8L18 8L18 9L16 9L16 11L15 11L15 8L14 8L14 9L12 9L12 10L13 10L13 11L10 11L10 12L8 12L8 13L6 13L6 12L7 12L7 11L5 11L5 10L3 10L3 9L2 9L2 13L1 13L1 15L2 15L2 17L4 17L4 18L3 18L3 20L2 20L2 22L4 22L4 24L7 24L7 25L4 25L4 26L3 26L3 27L5 27L5 28L7 28L7 27L5 27L5 26L11 26L11 28L12 28L12 29L9 29L9 31L10 31L10 34L9 34L9 33L5 33L5 34L4 34L4 35L3 35L3 32L4 32L4 30L2 30L2 31L3 31L3 32L2 32L2 36L3 36L3 40L4 40L4 41L3 41L3 43L4 43L4 41L5 41L5 40L7 40L7 41L6 41L6 42L5 42L5 43L6 43L6 44L7 44L7 45L9 45L9 44L7 44L7 43L6 43L6 42L7 42L7 41L8 41L8 40L7 40L7 39L5 39L5 38L8 38L8 39L9 39L9 38L10 38L10 40L9 40L9 41L10 41L10 42L11 42L11 43L10 43L10 44L12 44L12 43L13 43L13 44L14 44L14 43L13 43L13 42L16 42L16 43L15 43L15 44L16 44L16 43L17 43L17 42L18 42L18 43L19 43L19 44L21 44L21 43L22 43L22 45L18 45L18 44L17 44L17 45L16 45L16 47L17 47L17 48L16 48L16 49L13 49L13 52L14 52L14 50L16 50L16 49L17 49L17 48L19 48L19 49L18 49L18 50L19 50L19 51L17 51L17 53L16 53L16 51L15 51L15 53L12 53L12 49L11 49L11 51L10 51L10 50L7 50L7 49L5 49L5 50L7 50L7 51L9 51L9 52L11 52L11 53L12 53L12 54L11 54L11 55L10 55L10 56L9 56L9 57L12 57L12 54L14 54L14 55L15 55L15 56L16 56L16 55L15 55L15 53L16 53L16 54L17 54L17 55L18 55L18 54L19 54L19 57L21 57L21 58L22 58L22 57L25 57L25 56L26 56L26 55L24 55L24 56L21 56L21 55L22 55L22 53L23 53L23 54L24 54L24 53L25 53L25 54L26 54L26 53L27 53L27 54L28 54L28 53L27 53L27 52L29 52L29 51L30 51L30 50L31 50L31 51L32 51L32 50L31 50L31 49L32 49L32 48L31 48L31 49L30 49L30 47L29 47L29 46L27 46L27 44L28 44L28 45L29 45L29 42L31 42L31 43L30 43L30 44L31 44L31 43L32 43L32 45L33 45L33 43L34 43L34 44L35 44L35 43L36 43L36 44L37 44L37 46L39 46L39 45L40 45L40 47L41 47L41 44L39 44L39 43L40 43L40 41L42 41L42 40L39 40L39 39L38 39L38 38L39 38L39 36L40 36L40 38L42 38L42 39L43 39L43 38L47 38L47 39L46 39L46 40L48 40L48 38L53 38L53 37L50 37L50 36L52 36L52 35L50 35L50 34L55 34L55 35L53 35L53 36L57 36L57 34L58 34L58 36L59 36L59 34L58 34L58 33L60 33L60 31L58 31L58 30L59 30L59 29L60 29L60 27L59 27L59 25L57 25L57 24L55 24L55 23L57 23L57 22L56 22L56 21L57 21L57 18L56 18L56 17L55 17L55 18L53 18L53 17L52 17L52 16L54 16L54 15L55 15L55 16L56 16L56 15L55 15L55 14L54 14L54 15L52 15L52 14L53 14L53 13L51 13L51 12L52 12L52 11L51 11L51 12L50 12L50 11L49 11L49 9L48 9L48 12L47 12L47 11L46 11L46 12L45 12L45 11L44 11L44 13L43 13L43 12L42 12L42 11L43 11L43 10L40 10L40 11L41 11L41 12L39 12L39 11L38 11L38 10L39 10L39 9L38 9L38 5L39 5L39 8L40 8L40 9L41 9L41 8L42 8L42 9L43 9L43 8L44 8L44 9L45 9L45 10L47 10L47 7L48 7L48 8L51 8L51 9L50 9L50 10L54 10L54 13L55 13L55 12L56 12L56 11L57 11L57 10L54 10L54 9L52 9L52 8L51 8L51 7L50 7L50 6L49 6L49 7L48 7L48 5L49 5L49 4L48 4L48 3L50 3L50 2ZM51 3L51 4L52 4L52 3ZM22 4L22 5L21 5L21 6L20 6L20 5L19 5L19 6L18 6L18 7L19 7L19 9L18 9L18 13L17 13L17 11L16 11L16 13L13 13L13 14L12 14L12 13L11 13L11 14L10 14L10 13L8 13L8 14L5 14L5 15L4 15L4 16L6 16L6 17L5 17L5 19L4 19L4 21L5 21L5 19L7 19L7 18L8 18L8 19L10 19L10 20L8 20L8 21L7 21L7 20L6 20L6 21L7 21L7 22L6 22L6 23L7 23L7 22L8 22L8 21L11 21L11 22L9 22L9 23L8 23L8 24L9 24L9 25L11 25L11 24L12 24L12 22L14 22L14 23L15 23L15 25L14 25L14 26L13 26L13 25L12 25L12 28L13 28L13 29L14 29L14 28L15 28L15 27L16 27L16 29L15 29L15 32L16 32L16 29L17 29L17 28L18 28L18 29L21 29L21 28L22 28L22 27L23 27L23 28L24 28L24 27L25 27L25 29L23 29L23 30L22 30L22 31L21 31L21 30L20 30L20 33L19 33L19 32L17 32L17 33L19 33L19 34L17 34L17 36L16 36L16 35L15 35L15 34L16 34L16 33L14 33L14 30L13 30L13 33L12 33L12 31L11 31L11 33L12 33L12 34L10 34L10 35L9 35L9 36L8 36L8 34L5 34L5 35L4 35L4 36L6 36L6 37L8 37L8 38L9 38L9 36L12 36L12 37L10 37L10 38L12 38L12 37L13 37L13 38L14 38L14 37L15 37L15 41L18 41L18 42L19 42L19 43L20 43L20 42L19 42L19 41L20 41L20 40L19 40L19 41L18 41L18 40L16 40L16 37L17 37L17 39L18 39L18 37L22 37L22 40L23 40L23 37L24 37L24 40L26 40L26 39L25 39L25 38L27 38L27 43L26 43L26 44L25 44L25 45L24 45L24 43L25 43L25 42L26 42L26 41L21 41L21 42L24 42L24 43L23 43L23 45L22 45L22 46L21 46L21 47L20 47L20 49L19 49L19 50L20 50L20 49L22 49L22 48L21 48L21 47L22 47L22 46L23 46L23 47L24 47L24 48L23 48L23 49L24 49L24 50L23 50L23 51L22 51L22 50L21 50L21 52L20 52L20 51L19 51L19 52L18 52L18 53L22 53L22 52L23 52L23 53L24 53L24 52L26 52L26 51L25 51L25 50L27 50L27 51L28 51L28 50L27 50L27 49L26 49L26 48L27 48L27 46L25 46L25 45L26 45L26 44L27 44L27 43L28 43L28 42L29 42L29 41L28 41L28 39L29 39L29 40L30 40L30 41L32 41L32 39L33 39L33 38L32 38L32 35L33 35L33 37L37 37L37 36L38 36L38 35L39 35L39 34L40 34L40 36L41 36L41 35L42 35L42 34L43 34L43 35L44 35L44 36L45 36L45 35L44 35L44 32L45 32L45 34L46 34L46 35L47 35L47 36L48 36L48 37L49 37L49 36L48 36L48 35L49 35L49 34L50 34L50 33L49 33L49 32L51 32L51 33L55 33L55 34L56 34L56 33L57 33L57 30L58 30L58 29L59 29L59 28L58 28L58 27L57 27L57 25L56 25L56 28L55 28L55 27L54 27L54 28L53 28L53 26L50 26L50 25L49 25L49 24L50 24L50 23L51 23L51 22L50 22L50 23L49 23L49 20L50 20L50 19L51 19L51 18L50 18L50 15L51 15L51 16L52 16L52 15L51 15L51 14L50 14L50 13L49 13L49 12L48 12L48 13L49 13L49 14L48 14L48 15L49 15L49 16L46 16L46 15L47 15L47 14L46 14L46 13L45 13L45 14L44 14L44 16L43 16L43 15L42 15L42 16L43 16L43 17L41 17L41 18L36 18L36 19L37 19L37 20L35 20L35 18L33 18L33 17L32 17L32 18L31 18L31 19L30 19L30 20L29 20L29 21L30 21L30 22L28 22L28 23L29 23L29 24L28 24L28 26L29 26L29 28L28 28L28 27L27 27L27 28L28 28L28 29L26 29L26 26L25 26L25 25L27 25L27 21L28 21L28 20L27 20L27 21L24 21L24 22L23 22L23 23L22 23L22 24L25 24L25 25L24 25L24 27L23 27L23 25L19 25L19 23L20 23L20 22L18 22L18 21L19 21L19 20L18 20L18 21L17 21L17 18L18 18L18 17L19 17L19 18L20 18L20 17L22 17L22 16L20 16L20 15L19 15L19 14L18 14L18 13L22 13L22 14L21 14L21 15L22 15L22 14L23 14L23 13L22 13L22 12L19 12L19 11L20 11L20 10L19 10L19 9L20 9L20 8L24 8L24 7L23 7L23 6L22 6L22 5L23 5L23 4ZM8 5L8 7L9 7L9 5ZM29 5L29 8L32 8L32 5ZM41 5L41 6L40 6L40 8L41 8L41 6L42 6L42 8L43 8L43 6L42 6L42 5ZM10 6L10 7L11 7L11 6ZM12 6L12 7L13 7L13 6ZM16 6L16 7L17 7L17 6ZM19 6L19 7L20 7L20 6ZM21 6L21 7L22 7L22 6ZM26 6L26 7L25 7L25 8L26 8L26 7L27 7L27 6ZM30 6L30 7L31 7L31 6ZM36 6L36 7L37 7L37 6ZM35 8L35 9L36 9L36 10L34 10L34 12L36 12L36 15L37 15L37 12L38 12L38 13L39 13L39 12L38 12L38 11L37 11L37 10L38 10L38 9L37 9L37 8ZM45 8L45 9L46 9L46 8ZM21 9L21 11L22 11L22 9ZM24 9L24 11L23 11L23 12L24 12L24 11L26 11L26 9ZM27 9L27 11L28 11L28 9ZM8 10L8 11L9 11L9 10ZM3 11L3 12L4 12L4 13L5 13L5 11ZM36 11L36 12L37 12L37 11ZM58 11L58 12L59 12L59 11ZM25 12L25 13L26 13L26 14L27 14L27 13L26 13L26 12ZM16 13L16 17L12 17L12 16L14 16L14 15L11 15L11 16L10 16L10 17L9 17L9 16L7 16L7 15L6 15L6 16L7 16L7 17L6 17L6 18L7 18L7 17L9 17L9 18L10 18L10 17L11 17L11 20L13 20L13 21L14 21L14 22L15 22L15 21L16 21L16 24L17 24L17 25L16 25L16 27L17 27L17 25L18 25L18 24L17 24L17 23L18 23L18 22L17 22L17 21L16 21L16 19L15 19L15 18L16 18L16 17L18 17L18 16L19 16L19 15L18 15L18 14L17 14L17 13ZM40 13L40 14L38 14L38 15L39 15L39 16L38 16L38 17L39 17L39 16L41 16L41 15L40 15L40 14L43 14L43 13ZM8 14L8 15L10 15L10 14ZM49 14L49 15L50 15L50 14ZM60 14L60 15L61 15L61 14ZM44 16L44 17L43 17L43 18L41 18L41 20L40 20L40 19L38 19L38 22L37 22L37 23L36 23L36 24L37 24L37 25L36 25L36 26L35 26L35 23L33 23L33 22L32 22L32 21L33 21L33 20L30 20L30 21L31 21L31 24L29 24L29 26L30 26L30 25L31 25L31 24L32 24L32 26L31 26L31 27L32 27L32 28L34 28L34 30L35 30L35 31L33 31L33 33L30 33L30 35L29 35L29 33L27 33L27 32L26 32L26 30L25 30L25 32L26 32L26 33L24 33L24 32L23 32L23 33L22 33L22 32L21 32L21 33L20 33L20 36L21 36L21 33L22 33L22 35L24 35L24 37L27 37L27 38L28 38L28 36L30 36L30 37L29 37L29 39L30 39L30 37L31 37L31 35L32 35L32 34L36 34L36 36L37 36L37 34L39 34L39 33L41 33L41 32L42 32L42 31L46 31L46 30L48 30L48 28L50 28L50 30L51 30L51 31L52 31L52 30L51 30L51 29L52 29L52 28L50 28L50 26L49 26L49 25L47 25L47 24L49 24L49 23L48 23L48 20L49 20L49 19L50 19L50 18L47 18L47 17L46 17L46 18L45 18L45 16ZM12 18L12 19L13 19L13 18ZM28 18L28 19L29 19L29 18ZM32 18L32 19L33 19L33 18ZM46 18L46 20L45 20L45 21L44 21L44 20L43 20L43 19L42 19L42 22L41 22L41 21L40 21L40 20L39 20L39 22L38 22L38 23L37 23L37 24L38 24L38 25L37 25L37 26L36 26L36 27L35 27L35 26L34 26L34 28L36 28L36 31L38 31L38 33L39 33L39 32L40 32L40 30L37 30L37 28L38 28L38 29L39 29L39 28L42 28L42 29L41 29L41 30L44 30L44 29L43 29L43 28L45 28L45 26L43 26L43 25L44 25L44 24L45 24L45 23L44 23L44 24L43 24L43 23L42 23L42 22L43 22L43 21L44 21L44 22L45 22L45 21L47 21L47 20L48 20L48 19L47 19L47 18ZM54 19L54 20L51 20L51 21L53 21L53 22L52 22L52 24L51 24L51 25L53 25L53 23L54 23L54 22L55 22L55 21L56 21L56 20L55 20L55 19ZM58 19L58 20L60 20L60 19ZM34 21L34 22L35 22L35 21ZM58 21L58 22L59 22L59 21ZM24 22L24 23L25 23L25 24L26 24L26 23L25 23L25 22ZM46 22L46 23L47 23L47 22ZM1 23L1 24L2 24L2 25L3 25L3 24L2 24L2 23ZM9 23L9 24L10 24L10 23ZM41 23L41 24L40 24L40 25L41 25L41 24L42 24L42 23ZM33 24L33 25L34 25L34 24ZM54 24L54 26L55 26L55 24ZM38 25L38 26L39 26L39 27L40 27L40 26L39 26L39 25ZM19 26L19 27L18 27L18 28L19 28L19 27L20 27L20 26ZM42 26L42 27L43 27L43 26ZM46 26L46 28L47 28L47 27L48 27L48 26ZM8 27L8 28L10 28L10 27ZM36 27L36 28L37 28L37 27ZM57 28L57 29L58 29L58 28ZM5 29L5 32L8 32L8 29ZM29 29L29 32L32 32L32 29ZM45 29L45 30L46 30L46 29ZM53 29L53 32L56 32L56 29ZM6 30L6 31L7 31L7 30ZM23 30L23 31L24 31L24 30ZM30 30L30 31L31 31L31 30ZM54 30L54 31L55 31L55 30ZM47 31L47 32L48 32L48 31ZM36 32L36 34L37 34L37 32ZM13 33L13 34L12 34L12 36L15 36L15 37L16 37L16 36L15 36L15 35L14 35L14 33ZM23 33L23 34L24 34L24 33ZM26 33L26 34L27 34L27 35L26 35L26 36L27 36L27 35L28 35L28 34L27 34L27 33ZM46 33L46 34L47 34L47 35L48 35L48 34L49 34L49 33ZM6 35L6 36L7 36L7 35ZM34 35L34 36L35 36L35 35ZM17 36L17 37L18 37L18 36ZM22 36L22 37L23 37L23 36ZM42 36L42 38L43 38L43 36ZM54 37L54 38L55 38L55 37ZM56 37L56 38L57 38L57 40L60 40L60 38L57 38L57 37ZM20 38L20 39L21 39L21 38ZM31 38L31 39L32 39L32 38ZM34 38L34 39L35 39L35 41L37 41L37 42L36 42L36 43L37 43L37 42L38 42L38 43L39 43L39 42L38 42L38 39L36 39L36 38ZM4 39L4 40L5 40L5 39ZM12 39L12 40L10 40L10 41L13 41L13 39ZM53 39L53 40L52 40L52 41L53 41L53 42L54 42L54 41L53 41L53 40L55 40L55 39ZM50 41L50 42L51 42L51 41ZM32 42L32 43L33 43L33 42ZM34 42L34 43L35 43L35 42ZM58 43L58 44L59 44L59 45L58 45L58 46L59 46L59 45L60 45L60 44L59 44L59 43ZM43 44L43 45L44 45L44 46L45 46L45 47L46 47L46 48L44 48L44 47L43 47L43 46L42 46L42 47L43 47L43 48L44 48L44 49L46 49L46 50L47 50L47 47L46 47L46 46L45 46L45 44ZM51 44L51 45L52 45L52 44ZM10 45L10 46L11 46L11 47L12 47L12 48L13 48L13 47L15 47L15 46L14 46L14 45L13 45L13 47L12 47L12 46L11 46L11 45ZM17 45L17 47L18 47L18 45ZM8 46L8 47L6 47L6 48L10 48L10 47L9 47L9 46ZM25 47L25 48L26 48L26 47ZM28 47L28 49L29 49L29 47ZM48 47L48 48L49 48L49 47ZM51 47L51 48L52 48L52 47ZM36 48L36 50L34 50L34 52L35 52L35 53L37 53L37 52L35 52L35 51L36 51L36 50L37 50L37 49L38 49L38 48ZM53 49L53 50L52 50L52 51L53 51L53 52L55 52L55 51L53 51L53 50L54 50L54 49ZM38 50L38 51L39 51L39 50ZM3 51L3 52L4 52L4 51ZM23 51L23 52L24 52L24 51ZM45 51L45 52L46 52L46 51ZM58 52L58 53L59 53L59 54L60 54L60 55L61 55L61 54L60 54L60 52ZM29 53L29 56L32 56L32 53ZM53 53L53 56L56 56L56 53ZM30 54L30 55L31 55L31 54ZM51 54L51 55L52 55L52 54ZM54 54L54 55L55 55L55 54ZM27 55L27 56L28 56L28 55ZM17 56L17 57L18 57L18 56ZM37 56L37 57L38 57L38 58L41 58L41 56ZM50 56L50 58L51 58L51 56ZM13 57L13 58L14 58L14 57ZM55 57L55 58L56 58L56 57ZM11 58L11 59L12 59L12 58ZM19 58L19 59L20 59L20 58ZM30 59L30 60L32 60L32 59ZM46 60L46 61L49 61L49 60ZM0 0L0 7L7 7L7 0ZM1 1L1 6L6 6L6 1ZM2 2L2 5L5 5L5 2ZM54 0L54 7L61 7L61 0ZM55 1L55 6L60 6L60 1ZM56 2L56 5L59 5L59 2ZM0 54L0 61L7 61L7 54ZM1 55L1 60L6 60L6 55ZM2 56L2 59L5 59L5 56Z" fill="#000000"/></g></g></svg>
