<?xml version="1.0" encoding="UTF-8"?>
<svg xmlns="http://www.w3.org/2000/svg" version="1.1" width="500" height="500" viewBox="0 0 500 500"><rect x="0" y="0" width="500" height="500" fill="#ffffff"/><g transform="scale(8.197)"><g transform="translate(0,0)"><path fill-rule="evenodd" d="M8 0L8 1L9 1L9 2L10 2L10 4L11 4L11 6L10 6L10 5L9 5L9 6L8 6L8 8L9 8L9 6L10 6L10 7L11 7L11 8L13 8L13 9L14 9L14 8L15 8L15 10L14 10L14 11L12 11L12 9L11 9L11 10L10 10L10 9L7 9L7 8L6 8L6 9L5 9L5 8L3 8L3 9L2 9L2 8L0 8L0 10L1 10L1 9L2 9L2 11L1 11L1 12L0 12L0 13L1 13L1 14L3 14L3 15L2 15L2 17L1 17L1 18L3 18L3 16L5 16L5 17L8 17L8 16L9 16L9 15L10 15L10 12L9 12L9 11L12 11L12 12L11 12L11 15L12 15L12 14L13 14L13 16L10 16L10 17L12 17L12 18L13 18L13 21L11 21L11 20L9 20L9 19L8 19L8 18L5 18L5 19L2 19L2 20L4 20L4 21L5 21L5 22L3 22L3 21L0 21L0 23L1 23L1 22L3 22L3 24L1 24L1 25L0 25L0 26L4 26L4 27L1 27L1 28L0 28L0 29L2 29L2 28L3 28L3 30L2 30L2 31L4 31L4 32L3 32L3 33L5 33L5 34L4 34L4 35L3 35L3 36L4 36L4 35L5 35L5 37L7 37L7 38L6 38L6 39L5 39L5 38L4 38L4 39L3 39L3 37L1 37L1 38L2 38L2 39L1 39L1 40L0 40L0 42L1 42L1 43L2 43L2 42L4 42L4 41L5 41L5 43L4 43L4 44L2 44L2 45L0 45L0 46L1 46L1 47L0 47L0 49L2 49L2 51L0 51L0 53L4 53L4 52L5 52L5 51L7 51L7 52L6 52L6 53L7 53L7 52L8 52L8 54L9 54L9 56L8 56L8 58L9 58L9 59L8 59L8 61L9 61L9 59L11 59L11 55L12 55L12 54L13 54L13 57L12 57L12 59L13 59L13 60L12 60L12 61L15 61L15 60L17 60L17 61L20 61L20 60L19 60L19 59L21 59L21 61L24 61L24 60L25 60L25 59L27 59L27 58L29 58L29 59L31 59L31 58L30 58L30 57L33 57L33 58L32 58L32 61L38 61L38 60L40 60L40 61L42 61L42 60L43 60L43 61L47 61L47 60L48 60L48 61L51 61L51 60L52 60L52 61L54 61L54 60L56 60L56 61L58 61L58 60L60 60L60 61L61 61L61 57L60 57L60 58L59 58L59 57L58 57L58 56L57 56L57 55L61 55L61 54L59 54L59 53L61 53L61 52L59 52L59 50L57 50L57 49L58 49L58 48L60 48L60 47L61 47L61 46L60 46L60 45L61 45L61 42L60 42L60 41L61 41L61 38L60 38L60 37L58 37L58 39L57 39L57 35L58 35L58 36L61 36L61 34L59 34L59 33L58 33L58 34L57 34L57 32L58 32L58 31L57 31L57 30L58 30L58 29L59 29L59 28L60 28L60 29L61 29L61 26L60 26L60 25L61 25L61 24L60 24L60 23L61 23L61 22L60 22L60 21L61 21L61 20L60 20L60 21L58 21L58 22L56 22L56 23L55 23L55 24L54 24L54 22L55 22L55 20L57 20L57 19L59 19L59 18L60 18L60 19L61 19L61 14L60 14L60 12L59 12L59 11L61 11L61 10L56 10L56 12L55 12L55 13L53 13L53 15L52 15L52 17L51 17L51 18L52 18L52 19L50 19L50 20L48 20L48 23L49 23L49 24L48 24L48 25L47 25L47 24L46 24L46 23L47 23L47 21L46 21L46 20L47 20L47 19L48 19L48 18L49 18L49 16L48 16L48 18L47 18L47 15L46 15L46 14L45 14L45 13L46 13L46 12L45 12L45 11L47 11L47 9L46 9L46 8L45 8L45 9L46 9L46 10L45 10L45 11L44 11L44 9L42 9L42 8L44 8L44 7L45 7L45 5L44 5L44 4L45 4L45 3L46 3L46 2L47 2L47 3L48 3L48 4L47 4L47 6L46 6L46 7L47 7L47 6L48 6L48 7L49 7L49 8L48 8L48 11L50 11L50 12L47 12L47 13L50 13L50 14L48 14L48 15L50 15L50 16L51 16L51 14L52 14L52 12L53 12L53 11L50 11L50 10L51 10L51 9L52 9L52 10L53 10L53 9L52 9L52 8L51 8L51 5L52 5L52 4L53 4L53 0L51 0L51 2L49 2L49 1L50 1L50 0L45 0L45 1L43 1L43 0L42 0L42 1L41 1L41 0L36 0L36 1L35 1L35 0L34 0L34 2L33 2L33 1L31 1L31 2L30 2L30 0L27 0L27 1L26 1L26 0L22 0L22 1L23 1L23 2L24 2L24 3L22 3L22 2L21 2L21 0L19 0L19 1L18 1L18 0L17 0L17 1L16 1L16 2L18 2L18 4L20 4L20 5L17 5L17 6L16 6L16 3L14 3L14 4L13 4L13 3L12 3L12 4L11 4L11 2L12 2L12 1L9 1L9 0ZM13 0L13 1L14 1L14 2L15 2L15 0ZM28 1L28 3L27 3L27 2L25 2L25 3L24 3L24 4L25 4L25 3L27 3L27 4L26 4L26 5L27 5L27 7L26 7L26 6L25 6L25 5L24 5L24 6L23 6L23 10L22 10L22 3L21 3L21 2L19 2L19 3L20 3L20 4L21 4L21 5L20 5L20 6L19 6L19 8L20 8L20 10L19 10L19 11L21 11L21 10L22 10L22 11L23 11L23 12L24 12L24 13L23 13L23 14L22 14L22 13L21 13L21 16L20 16L20 19L19 19L19 20L22 20L22 19L23 19L23 18L24 18L24 21L21 21L21 22L22 22L22 24L21 24L21 23L19 23L19 22L20 22L20 21L18 21L18 20L17 20L17 19L16 19L16 17L17 17L17 18L19 18L19 17L17 17L17 16L19 16L19 15L20 15L20 12L19 12L19 13L18 13L18 14L17 14L17 12L16 12L16 11L17 11L17 10L15 10L15 11L14 11L14 12L15 12L15 13L14 13L14 15L15 15L15 17L14 17L14 16L13 16L13 17L14 17L14 18L15 18L15 21L14 21L14 24L13 24L13 23L12 23L12 22L11 22L11 21L9 21L9 20L7 20L7 19L5 19L5 20L7 20L7 21L6 21L6 22L7 22L7 21L9 21L9 23L10 23L10 22L11 22L11 26L12 26L12 27L13 27L13 26L12 26L12 24L13 24L13 25L15 25L15 24L16 24L16 26L14 26L14 27L15 27L15 28L10 28L10 26L9 26L9 27L8 27L8 28L10 28L10 29L9 29L9 30L10 30L10 31L11 31L11 30L10 30L10 29L15 29L15 30L12 30L12 32L13 32L13 33L14 33L14 31L15 31L15 32L17 32L17 33L16 33L16 34L17 34L17 35L16 35L16 36L15 36L15 35L14 35L14 34L10 34L10 35L9 35L9 34L8 34L8 33L6 33L6 34L7 34L7 35L6 35L6 36L7 36L7 37L8 37L8 38L7 38L7 39L6 39L6 40L7 40L7 41L6 41L6 42L7 42L7 43L6 43L6 44L7 44L7 45L6 45L6 46L5 46L5 47L4 47L4 49L3 49L3 46L4 46L4 45L3 45L3 46L2 46L2 47L1 47L1 48L2 48L2 49L3 49L3 50L4 50L4 49L5 49L5 50L7 50L7 51L8 51L8 50L7 50L7 49L8 49L8 48L7 48L7 47L6 47L6 46L7 46L7 45L9 45L9 46L10 46L10 45L12 45L12 46L11 46L11 47L10 47L10 50L9 50L9 52L10 52L10 53L9 53L9 54L10 54L10 55L11 55L11 54L12 54L12 53L11 53L11 50L12 50L12 49L14 49L14 50L13 50L13 52L14 52L14 53L13 53L13 54L14 54L14 57L15 57L15 56L16 56L16 57L17 57L17 58L16 58L16 59L17 59L17 60L18 60L18 59L17 59L17 58L18 58L18 57L19 57L19 58L20 58L20 57L22 57L22 58L21 58L21 59L22 59L22 60L24 60L24 58L23 58L23 57L25 57L25 56L26 56L26 57L27 57L27 56L26 56L26 55L25 55L25 54L26 54L26 52L31 52L31 49L30 49L30 48L29 48L29 50L28 50L28 51L25 51L25 50L27 50L27 49L26 49L26 47L27 47L27 48L28 48L28 47L27 47L27 46L28 46L28 45L29 45L29 47L30 47L30 46L32 46L32 47L31 47L31 48L33 48L33 47L34 47L34 48L37 48L37 49L33 49L33 50L34 50L34 51L33 51L33 52L34 52L34 53L33 53L33 57L35 57L35 58L34 58L34 59L33 59L33 60L34 60L34 59L35 59L35 60L38 60L38 59L39 59L39 58L40 58L40 59L41 59L41 58L40 58L40 54L41 54L41 56L43 56L43 55L44 55L44 57L43 57L43 58L42 58L42 59L43 59L43 58L44 58L44 59L45 59L45 60L46 60L46 59L45 59L45 58L44 58L44 57L45 57L45 53L44 53L44 52L45 52L45 51L44 51L44 50L46 50L46 53L47 53L47 54L46 54L46 55L47 55L47 56L46 56L46 57L47 57L47 59L48 59L48 60L51 60L51 59L53 59L53 60L54 60L54 59L55 59L55 58L54 58L54 57L52 57L52 58L49 58L49 59L48 59L48 57L47 57L47 56L49 56L49 57L51 57L51 56L52 56L52 53L50 53L50 52L49 52L49 51L50 51L50 49L51 49L51 50L52 50L52 49L53 49L53 50L54 50L54 48L55 48L55 50L56 50L56 51L51 51L51 52L56 52L56 51L57 51L57 53L58 53L58 51L57 51L57 50L56 50L56 48L57 48L57 46L56 46L56 44L58 44L58 45L60 45L60 44L59 44L59 43L58 43L58 41L57 41L57 40L56 40L56 35L57 35L57 34L56 34L56 33L53 33L53 35L52 35L52 38L53 38L53 37L54 37L54 38L55 38L55 39L54 39L54 40L55 40L55 41L54 41L54 42L53 42L53 43L54 43L54 45L53 45L53 44L52 44L52 45L51 45L51 44L50 44L50 45L51 45L51 46L50 46L50 47L48 47L48 46L47 46L47 49L46 49L46 45L47 45L47 44L49 44L49 43L48 43L48 40L49 40L49 39L48 39L48 38L47 38L47 37L48 37L48 36L49 36L49 38L50 38L50 36L51 36L51 34L50 34L50 33L47 33L47 32L48 32L48 30L46 30L46 29L44 29L44 28L46 28L46 27L47 27L47 28L51 28L51 29L50 29L50 30L49 30L49 31L50 31L50 32L52 32L52 28L51 28L51 27L53 27L53 28L54 28L54 27L55 27L55 28L57 28L57 29L58 29L58 27L59 27L59 24L58 24L58 25L56 25L56 26L57 26L57 27L55 27L55 26L54 26L54 25L53 25L53 24L52 24L52 26L51 26L51 27L48 27L48 26L50 26L50 25L48 25L48 26L47 26L47 25L45 25L45 26L46 26L46 27L44 27L44 26L42 26L42 27L43 27L43 29L44 29L44 30L45 30L45 31L44 31L44 32L42 32L42 31L43 31L43 30L42 30L42 29L41 29L41 27L39 27L39 29L37 29L37 30L36 30L36 29L35 29L35 28L38 28L38 27L36 27L36 26L38 26L38 23L39 23L39 26L40 26L40 24L41 24L41 25L42 25L42 24L41 24L41 22L42 22L42 23L43 23L43 25L44 25L44 22L45 22L45 23L46 23L46 22L45 22L45 20L42 20L42 21L41 21L41 22L40 22L40 23L39 23L39 22L37 22L37 23L36 23L36 22L35 22L35 25L34 25L34 26L32 26L32 24L33 24L33 23L34 23L34 21L33 21L33 20L37 20L37 21L39 21L39 20L38 20L38 19L39 19L39 17L41 17L41 18L40 18L40 19L44 19L44 18L45 18L45 19L47 19L47 18L46 18L46 17L44 17L44 18L42 18L42 17L41 17L41 16L42 16L42 15L44 15L44 16L46 16L46 15L44 15L44 13L43 13L43 12L42 12L42 13L43 13L43 14L41 14L41 15L39 15L39 16L38 16L38 14L37 14L37 13L33 13L33 12L32 12L32 10L33 10L33 11L34 11L34 12L38 12L38 13L40 13L40 12L41 12L41 10L40 10L40 11L39 11L39 10L37 10L37 11L36 11L36 9L35 9L35 11L34 11L34 10L33 10L33 9L34 9L34 8L38 8L38 9L40 9L40 8L38 8L38 5L35 5L35 4L34 4L34 3L33 3L33 4L34 4L34 6L33 6L33 9L31 9L31 12L30 12L30 10L28 10L28 4L32 4L32 3L29 3L29 1ZM38 1L38 2L39 2L39 3L38 3L38 4L39 4L39 5L41 5L41 8L42 8L42 6L43 6L43 7L44 7L44 6L43 6L43 5L41 5L41 4L42 4L42 2L41 2L41 1L40 1L40 2L39 2L39 1ZM45 1L45 2L46 2L46 1ZM35 2L35 3L37 3L37 2ZM43 2L43 3L44 3L44 2ZM48 2L48 3L49 3L49 2ZM40 3L40 4L41 4L41 3ZM51 3L51 4L52 4L52 3ZM14 4L14 5L13 5L13 8L14 8L14 6L15 6L15 8L16 8L16 9L18 9L18 8L17 8L17 7L18 7L18 6L17 6L17 7L16 7L16 6L15 6L15 4ZM48 4L48 5L49 5L49 4ZM29 5L29 8L32 8L32 5ZM11 6L11 7L12 7L12 6ZM20 6L20 7L21 7L21 6ZM24 6L24 8L26 8L26 10L25 10L25 9L24 9L24 10L23 10L23 11L27 11L27 8L26 8L26 7L25 7L25 6ZM30 6L30 7L31 7L31 6ZM34 6L34 7L35 7L35 6ZM36 6L36 7L37 7L37 6ZM39 6L39 7L40 7L40 6ZM49 6L49 7L50 7L50 6ZM52 6L52 7L53 7L53 6ZM49 8L49 9L50 9L50 8ZM54 8L54 10L55 10L55 8ZM60 8L60 9L61 9L61 8ZM6 9L6 10L7 10L7 9ZM4 10L4 11L3 11L3 12L2 12L2 13L3 13L3 14L4 14L4 13L5 13L5 15L6 15L6 16L8 16L8 15L9 15L9 14L7 14L7 13L8 13L8 11L9 11L9 10L8 10L8 11L6 11L6 12L4 12L4 11L5 11L5 10ZM42 10L42 11L43 11L43 10ZM28 11L28 13L30 13L30 14L32 14L32 12L31 12L31 13L30 13L30 12L29 12L29 11ZM38 11L38 12L39 12L39 11ZM57 11L57 13L56 13L56 16L57 16L57 13L59 13L59 12L58 12L58 11ZM3 12L3 13L4 13L4 12ZM6 12L6 13L7 13L7 12ZM26 12L26 13L24 13L24 14L23 14L23 16L22 16L22 18L21 18L21 19L22 19L22 18L23 18L23 17L25 17L25 18L26 18L26 19L25 19L25 21L24 21L24 22L23 22L23 24L22 24L22 26L23 26L23 25L24 25L24 27L20 27L20 28L18 28L18 27L19 27L19 26L21 26L21 24L20 24L20 25L18 25L18 26L16 26L16 30L15 30L15 31L18 31L18 29L20 29L20 28L21 28L21 30L20 30L20 31L19 31L19 32L18 32L18 33L19 33L19 34L18 34L18 36L17 36L17 38L18 38L18 39L16 39L16 38L15 38L15 39L14 39L14 40L13 40L13 38L12 38L12 37L15 37L15 36L14 36L14 35L13 35L13 36L12 36L12 35L11 35L11 40L10 40L10 41L9 41L9 38L8 38L8 39L7 39L7 40L8 40L8 41L9 41L9 42L8 42L8 43L9 43L9 44L13 44L13 45L16 45L16 47L15 47L15 46L12 46L12 47L11 47L11 48L14 48L14 49L15 49L15 48L16 48L16 49L17 49L17 50L16 50L16 55L17 55L17 53L20 53L20 52L21 52L21 54L19 54L19 56L21 56L21 54L22 54L22 52L21 52L21 51L23 51L23 52L24 52L24 51L23 51L23 50L24 50L24 49L25 49L25 47L26 47L26 46L27 46L27 45L28 45L28 43L29 43L29 45L31 45L31 44L30 44L30 43L32 43L32 44L33 44L33 46L35 46L35 47L38 47L38 46L39 46L39 47L40 47L40 46L43 46L43 45L44 45L44 44L43 44L43 43L47 43L47 40L48 40L48 39L46 39L46 37L47 37L47 35L49 35L49 36L50 36L50 35L49 35L49 34L47 34L47 33L46 33L46 32L47 32L47 31L46 31L46 32L45 32L45 33L44 33L44 34L43 34L43 33L41 33L41 32L40 32L40 33L41 33L41 34L40 34L40 35L39 35L39 36L38 36L38 34L39 34L39 32L38 32L38 31L37 31L37 32L35 32L35 31L36 31L36 30L35 30L35 29L34 29L34 27L32 27L32 28L31 28L31 25L30 25L30 24L31 24L31 21L32 21L32 20L31 20L31 19L30 19L30 17L29 17L29 16L31 16L31 15L28 15L28 14L27 14L27 16L26 16L26 17L25 17L25 15L26 15L26 13L27 13L27 12ZM6 14L6 15L7 15L7 14ZM16 14L16 16L17 16L17 14ZM18 14L18 15L19 15L19 14ZM33 14L33 16L32 16L32 19L34 19L34 18L36 18L36 17L37 17L37 16L36 16L36 14L35 14L35 16L36 16L36 17L34 17L34 14ZM54 14L54 15L55 15L55 14ZM58 14L58 15L59 15L59 16L60 16L60 14ZM0 15L0 16L1 16L1 15ZM27 16L27 17L28 17L28 18L27 18L27 19L28 19L28 20L30 20L30 21L29 21L29 24L27 24L27 23L28 23L28 22L27 22L27 20L26 20L26 21L25 21L25 23L26 23L26 24L27 24L27 25L29 25L29 26L30 26L30 25L29 25L29 24L30 24L30 21L31 21L31 20L30 20L30 19L29 19L29 17L28 17L28 16ZM53 17L53 18L54 18L54 20L53 20L53 19L52 19L52 21L53 21L53 22L52 22L52 23L53 23L53 22L54 22L54 20L55 20L55 18L54 18L54 17ZM57 17L57 18L58 18L58 17ZM10 18L10 19L11 19L11 18ZM50 20L50 21L51 21L51 20ZM16 21L16 22L15 22L15 23L17 23L17 24L18 24L18 23L17 23L17 22L18 22L18 21ZM42 21L42 22L43 22L43 21ZM26 22L26 23L27 23L27 22ZM32 22L32 23L33 23L33 22ZM49 22L49 23L50 23L50 24L51 24L51 22ZM4 23L4 24L3 24L3 25L5 25L5 26L7 26L7 25L8 25L8 24L7 24L7 23L6 23L6 24L7 24L7 25L5 25L5 23ZM9 24L9 25L10 25L10 24ZM24 24L24 25L25 25L25 27L24 27L24 29L23 29L23 28L22 28L22 30L24 30L24 29L25 29L25 27L27 27L27 26L26 26L26 25L25 25L25 24ZM36 24L36 25L35 25L35 26L36 26L36 25L37 25L37 24ZM4 27L4 28L7 28L7 27ZM28 27L28 28L29 28L29 27ZM5 29L5 32L8 32L8 29ZM29 29L29 32L32 32L32 29ZM33 29L33 30L34 30L34 31L35 31L35 30L34 30L34 29ZM39 29L39 31L42 31L42 30L41 30L41 29ZM53 29L53 32L56 32L56 29ZM0 30L0 31L1 31L1 30ZM6 30L6 31L7 31L7 30ZM26 30L26 32L25 32L25 36L23 36L23 35L24 35L24 33L23 33L23 34L22 34L22 35L20 35L20 36L19 36L19 37L18 37L18 38L19 38L19 37L21 37L21 36L23 36L23 38L21 38L21 39L22 39L22 40L21 40L21 42L20 42L20 43L19 43L19 42L18 42L18 41L17 41L17 43L16 43L16 42L15 42L15 43L14 43L14 41L15 41L15 40L16 40L16 39L15 39L15 40L14 40L14 41L13 41L13 42L12 42L12 41L11 41L11 43L13 43L13 44L15 44L15 43L16 43L16 45L18 45L18 46L20 46L20 44L23 44L23 43L21 43L21 42L24 42L24 41L25 41L25 42L29 42L29 43L30 43L30 42L32 42L32 43L33 43L33 44L34 44L34 45L36 45L36 46L38 46L38 45L36 45L36 44L37 44L37 43L36 43L36 44L35 44L35 42L33 42L33 41L36 41L36 42L37 42L37 41L36 41L36 40L33 40L33 41L30 41L30 42L29 42L29 40L28 40L28 39L30 39L30 37L29 37L29 36L30 36L30 35L31 35L31 34L32 34L32 36L31 36L31 37L33 37L33 39L35 39L35 38L36 38L36 39L37 39L37 37L36 37L36 36L37 36L37 34L38 34L38 33L35 33L35 34L36 34L36 35L35 35L35 37L33 37L33 36L34 36L34 35L33 35L33 34L34 34L34 33L33 33L33 34L32 34L32 33L30 33L30 34L29 34L29 33L28 33L28 32L27 32L27 31L28 31L28 30ZM30 30L30 31L31 31L31 30ZM54 30L54 31L55 31L55 30ZM59 30L59 31L60 31L60 33L61 33L61 30ZM22 31L22 32L23 32L23 31ZM0 32L0 34L1 34L1 33L2 33L2 32ZM10 32L10 33L11 33L11 32ZM45 33L45 35L46 35L46 33ZM26 34L26 36L25 36L25 37L24 37L24 38L25 38L25 37L27 37L27 38L26 38L26 39L28 39L28 38L29 38L29 37L28 37L28 36L27 36L27 35L28 35L28 34ZM42 34L42 35L40 35L40 36L41 36L41 37L39 37L39 39L38 39L38 43L39 43L39 46L40 46L40 43L39 43L39 41L41 41L41 42L42 42L42 43L43 43L43 42L44 42L44 41L43 41L43 42L42 42L42 41L41 41L41 39L40 39L40 38L42 38L42 39L43 39L43 40L44 40L44 38L42 38L42 36L44 36L44 35L43 35L43 34ZM54 34L54 35L53 35L53 36L54 36L54 35L55 35L55 34ZM58 34L58 35L59 35L59 34ZM0 35L0 36L2 36L2 35ZM7 35L7 36L9 36L9 37L10 37L10 36L9 36L9 35ZM45 36L45 37L46 37L46 36ZM59 38L59 39L60 39L60 38ZM2 39L2 40L1 40L1 41L4 41L4 40L3 40L3 39ZM19 39L19 41L20 41L20 39ZM24 39L24 40L23 40L23 41L24 41L24 40L25 40L25 41L26 41L26 40L25 40L25 39ZM39 39L39 40L40 40L40 39ZM45 39L45 40L46 40L46 39ZM50 39L50 43L51 43L51 42L52 42L52 41L53 41L53 39L52 39L52 41L51 41L51 39ZM27 40L27 41L28 41L28 40ZM54 42L54 43L57 43L57 42ZM17 43L17 44L18 44L18 45L19 45L19 43ZM24 43L24 45L25 45L25 46L26 46L26 45L27 45L27 43L26 43L26 44L25 44L25 43ZM45 44L45 45L46 45L46 44ZM22 45L22 46L21 46L21 48L20 48L20 49L18 49L18 48L19 48L19 47L18 47L18 48L17 48L17 49L18 49L18 50L17 50L17 52L19 52L19 50L20 50L20 51L21 51L21 50L23 50L23 47L24 47L24 46L23 46L23 45ZM52 45L52 46L51 46L51 49L52 49L52 47L53 47L53 48L54 48L54 47L55 47L55 45L54 45L54 46L53 46L53 45ZM22 46L22 47L23 47L23 46ZM44 46L44 47L42 47L42 49L41 49L41 48L40 48L40 49L39 49L39 48L38 48L38 49L37 49L37 50L36 50L36 51L38 51L38 52L41 52L41 51L42 51L42 53L41 53L41 54L43 54L43 51L42 51L42 50L43 50L43 48L44 48L44 49L45 49L45 46ZM58 46L58 47L59 47L59 46ZM6 48L6 49L7 49L7 48ZM48 48L48 49L47 49L47 51L49 51L49 49L50 49L50 48ZM20 49L20 50L21 50L21 49ZM29 50L29 51L30 51L30 50ZM39 50L39 51L41 51L41 50ZM60 50L60 51L61 51L61 50ZM3 51L3 52L4 52L4 51ZM14 51L14 52L15 52L15 51ZM34 51L34 52L35 52L35 51ZM36 52L36 53L34 53L34 54L35 54L35 55L36 55L36 53L37 53L37 52ZM48 52L48 53L49 53L49 54L50 54L50 55L51 55L51 54L50 54L50 53L49 53L49 52ZM10 53L10 54L11 54L11 53ZM23 53L23 55L22 55L22 57L23 57L23 55L24 55L24 56L25 56L25 55L24 55L24 54L25 54L25 53ZM29 53L29 56L32 56L32 53ZM39 53L39 54L40 54L40 53ZM53 53L53 56L56 56L56 53ZM30 54L30 55L31 55L31 54ZM54 54L54 55L55 55L55 54ZM9 56L9 57L10 57L10 56ZM17 56L17 57L18 57L18 56ZM36 56L36 58L37 58L37 57L38 57L38 58L39 58L39 56ZM56 57L56 58L58 58L58 57ZM13 58L13 59L14 59L14 60L15 60L15 58ZM53 58L53 59L54 59L54 58ZM56 59L56 60L58 60L58 59ZM26 60L26 61L31 61L31 60ZM0 0L0 7L7 7L7 0ZM1 1L1 6L6 6L6 1ZM2 2L2 5L5 5L5 2ZM54 0L54 7L61 7L61 0ZM55 1L55 6L60 6L60 1ZM56 2L56 5L59 5L59 2ZM0 54L0 61L7 61L7 54ZM1 55L1 60L6 60L6 55ZM2 56L2 59L5 59L5 56Z" fill="#000000"/></g></g></svg>
