<?xml version="1.0" encoding="UTF-8"?>
<svg xmlns="http://www.w3.org/2000/svg" version="1.1" width="500" height="500" viewBox="0 0 500 500"><rect x="0" y="0" width="500" height="500" fill="#ffffff"/><g transform="scale(9.434)"><g transform="translate(0,0)"><path fill-rule="evenodd" d="M9 0L9 1L8 1L8 2L9 2L9 1L10 1L10 2L11 2L11 3L10 3L10 4L9 4L9 3L8 3L8 4L9 4L9 5L8 5L8 7L9 7L9 5L10 5L10 4L11 4L11 3L12 3L12 5L11 5L11 6L10 6L10 8L14 8L14 7L15 7L15 6L14 6L14 7L13 7L13 5L16 5L16 4L17 4L17 5L18 5L18 7L19 7L19 5L18 5L18 4L21 4L21 5L22 5L22 7L21 7L21 6L20 6L20 7L21 7L21 8L20 8L20 9L19 9L19 8L18 8L18 9L17 9L17 10L18 10L18 11L17 11L17 12L16 12L16 11L15 11L15 10L16 10L16 9L15 9L15 10L14 10L14 9L13 9L13 10L14 10L14 12L16 12L16 13L13 13L13 11L12 11L12 9L10 9L10 10L8 10L8 9L9 9L9 8L6 8L6 9L7 9L7 10L5 10L5 11L4 11L4 10L3 10L3 11L2 11L2 9L5 9L5 8L0 8L0 10L1 10L1 11L0 11L0 12L1 12L1 16L0 16L0 18L4 18L4 17L5 17L5 18L6 18L6 19L7 19L7 20L5 20L5 21L4 21L4 23L3 23L3 22L2 22L2 21L3 21L3 20L4 20L4 19L2 19L2 20L1 20L1 19L0 19L0 21L1 21L1 22L2 22L2 23L0 23L0 27L1 27L1 30L0 30L0 32L1 32L1 33L2 33L2 34L1 34L1 35L0 35L0 36L1 36L1 37L0 37L0 38L2 38L2 39L1 39L1 42L0 42L0 43L1 43L1 44L3 44L3 45L4 45L4 44L3 44L3 43L7 43L7 44L6 44L6 45L7 45L7 44L8 44L8 42L9 42L9 41L8 41L8 40L10 40L10 39L11 39L11 36L12 36L12 39L13 39L13 40L14 40L14 39L13 39L13 38L15 38L15 39L16 39L16 37L17 37L17 33L16 33L16 31L15 31L15 30L16 30L16 29L17 29L17 32L18 32L18 34L19 34L19 31L18 31L18 29L19 29L19 28L20 28L20 29L21 29L21 30L20 30L20 33L22 33L22 34L25 34L25 33L26 33L26 34L28 34L28 35L30 35L30 38L28 38L28 37L29 37L29 36L28 36L28 37L21 37L21 36L22 36L22 35L21 35L21 34L20 34L20 35L21 35L21 36L19 36L19 35L18 35L18 37L21 37L21 38L20 38L20 39L21 39L21 40L20 40L20 41L22 41L22 42L20 42L20 45L21 45L21 43L22 43L22 42L24 42L24 43L23 43L23 45L22 45L22 46L21 46L21 49L22 49L22 50L23 50L23 49L22 49L22 46L23 46L23 47L24 47L24 49L27 49L27 50L25 50L25 51L27 51L27 52L26 52L26 53L28 53L28 52L29 52L29 53L32 53L32 52L34 52L34 51L35 51L35 52L36 52L36 53L37 53L37 52L36 52L36 51L39 51L39 50L38 50L38 49L39 49L39 48L42 48L42 47L40 47L40 46L37 46L37 44L38 44L38 45L40 45L40 44L41 44L41 42L44 42L44 41L41 41L41 42L40 42L40 41L39 41L39 42L38 42L38 41L37 41L37 40L38 40L38 39L39 39L39 40L41 40L41 39L42 39L42 38L44 38L44 39L43 39L43 40L44 40L44 39L45 39L45 41L46 41L46 40L47 40L47 39L49 39L49 40L50 40L50 41L51 41L51 40L53 40L53 39L52 39L52 38L53 38L53 35L52 35L52 34L53 34L53 33L51 33L51 32L50 32L50 31L49 31L49 30L50 30L50 29L52 29L52 30L51 30L51 31L52 31L52 32L53 32L53 31L52 31L52 30L53 30L53 29L52 29L52 28L53 28L53 27L51 27L51 26L52 26L52 25L53 25L53 24L50 24L50 22L49 22L49 20L48 20L48 19L49 19L49 18L48 18L48 19L47 19L47 18L46 18L46 17L47 17L47 16L48 16L48 17L49 17L49 16L50 16L50 19L51 19L51 20L50 20L50 21L51 21L51 20L52 20L52 22L51 22L51 23L52 23L52 22L53 22L53 20L52 20L52 19L51 19L51 18L53 18L53 17L52 17L52 16L50 16L50 15L52 15L52 14L53 14L53 11L52 11L52 14L49 14L49 13L50 13L50 11L51 11L51 10L53 10L53 9L52 9L52 8L51 8L51 10L49 10L49 12L47 12L47 13L48 13L48 14L44 14L44 15L45 15L45 16L43 16L43 17L39 17L39 18L38 18L38 15L39 15L39 16L40 16L40 12L41 12L41 10L44 10L44 9L45 9L45 11L47 11L47 10L46 10L46 8L44 8L44 9L43 9L43 3L44 3L44 4L45 4L45 3L44 3L44 1L43 1L43 0L42 0L42 2L43 2L43 3L42 3L42 4L40 4L40 3L41 3L41 0L40 0L40 3L39 3L39 5L37 5L37 6L36 6L36 7L37 7L37 8L35 8L35 9L37 9L37 10L38 10L38 11L35 11L35 10L33 10L33 11L32 11L32 8L33 8L33 6L34 6L34 7L35 7L35 5L34 5L34 4L35 4L35 3L34 3L34 2L36 2L36 1L34 1L34 2L32 2L32 3L33 3L33 6L32 6L32 5L31 5L31 4L30 4L30 5L29 5L29 4L27 4L27 3L28 3L28 2L27 2L27 3L25 3L25 4L24 4L24 3L23 3L23 2L26 2L26 1L25 1L25 0L24 0L24 1L23 1L23 0L21 0L21 3L20 3L20 2L19 2L19 1L18 1L18 2L19 2L19 3L18 3L18 4L17 4L17 0L16 0L16 1L15 1L15 2L16 2L16 4L13 4L13 3L14 3L14 1L12 1L12 0ZM28 0L28 1L30 1L30 3L31 3L31 0ZM32 0L32 1L33 1L33 0ZM37 0L37 3L36 3L36 4L38 4L38 2L39 2L39 1L38 1L38 0ZM11 1L11 2L12 2L12 3L13 3L13 2L12 2L12 1ZM22 1L22 2L23 2L23 1ZM21 3L21 4L23 4L23 3ZM23 5L23 7L24 7L24 5ZM25 5L25 8L28 8L28 5ZM30 5L30 6L29 6L29 8L31 8L31 7L32 7L32 6L31 6L31 5ZM11 6L11 7L12 7L12 6ZM16 6L16 7L17 7L17 6ZM26 6L26 7L27 7L27 6ZM30 6L30 7L31 7L31 6ZM37 6L37 7L38 7L38 8L37 8L37 9L38 9L38 10L39 10L39 11L38 11L38 13L37 13L37 14L39 14L39 12L40 12L40 10L39 10L39 9L41 9L41 8L39 8L39 7L40 7L40 6L39 6L39 7L38 7L38 6ZM41 6L41 7L42 7L42 6ZM44 6L44 7L45 7L45 6ZM22 8L22 9L20 9L20 11L19 11L19 12L20 12L20 11L22 11L22 12L21 12L21 13L18 13L18 12L17 12L17 13L16 13L16 14L17 14L17 16L16 16L16 17L13 17L13 16L14 16L14 15L13 15L13 16L12 16L12 17L10 17L10 16L11 16L11 15L10 15L10 16L9 16L9 19L8 19L8 21L5 21L5 23L4 23L4 24L7 24L7 23L8 23L8 24L9 24L9 22L8 22L8 21L11 21L11 20L10 20L10 19L11 19L11 18L12 18L12 17L13 17L13 19L12 19L12 22L10 22L10 23L11 23L11 25L10 25L10 26L11 26L11 27L9 27L9 29L10 29L10 32L11 32L11 33L12 33L12 32L14 32L14 31L13 31L13 30L14 30L14 29L16 29L16 28L17 28L17 29L18 29L18 26L19 26L19 27L21 27L21 26L22 26L22 27L23 27L23 26L24 26L24 23L25 23L25 24L27 24L27 23L28 23L28 24L29 24L29 26L30 26L30 27L29 27L29 29L27 29L27 31L26 31L26 30L23 30L23 28L21 28L21 29L22 29L22 33L24 33L24 32L25 32L25 31L26 31L26 33L27 33L27 31L28 31L28 34L30 34L30 35L31 35L31 36L32 36L32 39L33 39L33 38L35 38L35 39L34 39L34 40L37 40L37 39L38 39L38 38L39 38L39 37L40 37L40 39L41 39L41 38L42 38L42 35L43 35L43 34L42 34L42 33L44 33L44 35L48 35L48 34L46 34L46 32L45 32L45 30L44 30L44 32L42 32L42 31L43 31L43 30L42 30L42 29L41 29L41 28L40 28L40 26L41 26L41 27L42 27L42 28L44 28L44 27L43 27L43 26L42 26L42 24L40 24L40 26L39 26L39 25L38 25L38 27L36 27L36 28L35 28L35 27L34 27L34 28L33 28L33 27L32 27L32 29L31 29L31 28L30 28L30 27L31 27L31 26L30 26L30 25L31 25L31 24L32 24L32 25L33 25L33 24L34 24L34 26L35 26L35 25L36 25L36 24L39 24L39 23L36 23L36 20L37 20L37 22L40 22L40 23L43 23L43 25L44 25L44 24L45 24L45 23L46 23L46 24L49 24L49 23L48 23L48 22L47 22L47 19L46 19L46 18L45 18L45 17L44 17L44 18L42 18L42 19L41 19L41 18L40 18L40 19L39 19L39 20L40 20L40 21L38 21L38 19L36 19L36 18L37 18L37 17L36 17L36 16L37 16L37 15L36 15L36 13L35 13L35 12L34 12L34 11L33 11L33 12L32 12L32 14L30 14L30 13L31 13L31 10L28 10L28 9L26 9L26 12L27 12L27 13L25 13L25 12L24 12L24 11L25 11L25 9L24 9L24 11L23 11L23 10L22 10L22 9L23 9L23 8ZM47 8L47 9L48 9L48 8ZM49 8L49 9L50 9L50 8ZM18 9L18 10L19 10L19 9ZM27 10L27 11L28 11L28 10ZM3 11L3 12L2 12L2 13L3 13L3 15L4 15L4 16L3 16L3 17L4 17L4 16L5 16L5 15L6 15L6 16L8 16L8 14L9 14L9 13L11 13L11 14L12 14L12 13L11 13L11 12L12 12L12 11L11 11L11 12L10 12L10 11L8 11L8 12L9 12L9 13L6 13L6 12L7 12L7 11L5 11L5 12L4 12L4 11ZM42 11L42 12L43 12L43 13L42 13L42 14L41 14L41 16L42 16L42 14L43 14L43 13L45 13L45 12L44 12L44 11ZM3 12L3 13L4 13L4 12ZM23 12L23 13L21 13L21 14L20 14L20 15L21 15L21 16L20 16L20 17L19 17L19 16L18 16L18 17L16 17L16 18L15 18L15 19L13 19L13 20L15 20L15 19L16 19L16 21L13 21L13 22L12 22L12 23L13 23L13 24L12 24L12 25L11 25L11 26L12 26L12 27L11 27L11 32L12 32L12 28L14 28L14 27L15 27L15 28L16 28L16 27L15 27L15 26L16 26L16 25L15 25L15 26L14 26L14 25L13 25L13 24L14 24L14 23L13 23L13 22L15 22L15 24L16 24L16 21L17 21L17 22L18 22L18 23L19 23L19 22L18 22L18 21L21 21L21 20L19 20L19 19L18 19L18 17L19 17L19 18L20 18L20 19L21 19L21 18L20 18L20 17L22 17L22 18L23 18L23 19L24 19L24 20L26 20L26 19L27 19L27 22L29 22L29 23L30 23L30 24L31 24L31 23L32 23L32 24L33 24L33 23L34 23L34 24L35 24L35 22L33 22L33 21L35 21L35 20L36 20L36 19L35 19L35 18L32 18L32 16L33 16L33 17L34 17L34 16L36 16L36 15L35 15L35 14L34 14L34 12L33 12L33 15L32 15L32 16L31 16L31 15L29 15L29 16L30 16L30 18L31 18L31 19L30 19L30 20L31 20L31 21L30 21L30 22L29 22L29 20L28 20L28 18L29 18L29 17L28 17L28 16L27 16L27 18L25 18L25 17L26 17L26 15L25 15L25 13L24 13L24 12ZM28 12L28 14L29 14L29 12ZM23 13L23 14L22 14L22 17L23 17L23 18L24 18L24 19L25 19L25 18L24 18L24 17L25 17L25 16L23 16L23 15L24 15L24 13ZM4 14L4 15L5 15L5 14ZM6 14L6 15L7 15L7 14ZM33 15L33 16L34 16L34 15ZM46 15L46 16L47 16L47 15ZM48 15L48 16L49 16L49 15ZM6 17L6 18L7 18L7 17ZM44 18L44 19L42 19L42 20L41 20L41 19L40 19L40 20L41 20L41 21L42 21L42 22L43 22L43 21L46 21L46 20L45 20L45 18ZM31 19L31 20L32 20L32 21L33 21L33 20L32 20L32 19ZM34 19L34 20L35 20L35 19ZM17 20L17 21L18 21L18 20ZM22 21L22 22L20 22L20 23L21 23L21 24L20 24L20 25L22 25L22 26L23 26L23 25L22 25L22 22L23 22L23 21ZM25 21L25 22L26 22L26 21ZM6 22L6 23L7 23L7 22ZM30 22L30 23L31 23L31 22ZM44 22L44 23L45 23L45 22ZM2 23L2 24L1 24L1 25L3 25L3 23ZM17 24L17 26L18 26L18 25L19 25L19 24ZM5 25L5 28L8 28L8 25ZM25 25L25 28L28 28L28 25ZM45 25L45 28L48 28L48 25ZM49 25L49 29L50 29L50 28L51 28L51 27L50 27L50 26L51 26L51 25ZM1 26L1 27L2 27L2 26ZM3 26L3 28L2 28L2 31L5 31L5 33L4 33L4 32L3 32L3 33L4 33L4 34L5 34L5 35L1 35L1 36L2 36L2 38L4 38L4 39L5 39L5 40L2 40L2 43L3 43L3 41L4 41L4 42L7 42L7 41L5 41L5 40L8 40L8 38L7 38L7 37L8 37L8 35L6 35L6 34L8 34L8 33L9 33L9 30L8 30L8 29L5 29L5 30L3 30L3 28L4 28L4 26ZM6 26L6 27L7 27L7 26ZM13 26L13 27L14 27L14 26ZM26 26L26 27L27 27L27 26ZM46 26L46 27L47 27L47 26ZM34 28L34 29L35 29L35 28ZM36 28L36 31L39 31L39 32L35 32L35 30L34 30L34 32L33 32L33 31L32 31L32 30L31 30L31 29L30 29L30 30L28 30L28 31L30 31L30 30L31 30L31 31L32 31L32 32L31 32L31 33L30 33L30 34L31 34L31 35L32 35L32 36L33 36L33 37L35 37L35 36L36 36L36 39L37 39L37 37L38 37L38 36L39 36L39 34L40 34L40 35L42 35L42 34L40 34L40 32L41 32L41 31L42 31L42 30L41 30L41 31L39 31L39 30L40 30L40 28ZM37 29L37 30L39 30L39 29ZM47 29L47 30L46 30L46 31L48 31L48 29ZM6 30L6 31L8 31L8 30ZM6 32L6 33L5 33L5 34L6 34L6 33L8 33L8 32ZM32 32L32 33L31 33L31 34L32 34L32 35L33 35L33 32ZM34 32L34 34L35 34L35 32ZM47 32L47 33L50 33L50 32ZM13 33L13 34L16 34L16 33ZM36 33L36 34L37 34L37 33ZM38 33L38 34L39 34L39 33ZM49 34L49 36L46 36L46 37L49 37L49 38L50 38L50 40L51 40L51 38L52 38L52 37L51 37L51 38L50 38L50 36L52 36L52 35L51 35L51 34ZM10 35L10 36L9 36L9 37L10 37L10 36L11 36L11 35ZM12 35L12 36L13 36L13 37L16 37L16 35L15 35L15 36L14 36L14 35ZM24 35L24 36L26 36L26 35ZM34 35L34 36L35 36L35 35ZM36 35L36 36L38 36L38 35ZM3 36L3 37L4 37L4 36ZM6 36L6 37L5 37L5 38L6 38L6 39L7 39L7 38L6 38L6 37L7 37L7 36ZM43 36L43 37L44 37L44 38L45 38L45 37L44 37L44 36ZM17 38L17 39L18 39L18 38ZM22 38L22 41L25 41L25 44L29 44L29 46L30 46L30 48L29 48L29 50L28 50L28 51L29 51L29 52L30 52L30 51L31 51L31 50L30 50L30 48L31 48L31 46L32 46L32 47L33 47L33 46L35 46L35 47L34 47L34 48L32 48L32 51L34 51L34 50L35 50L35 51L36 51L36 50L37 50L37 49L34 49L34 48L37 48L37 47L36 47L36 44L37 44L37 43L38 43L38 42L37 42L37 43L36 43L36 42L35 42L35 41L33 41L33 40L32 40L32 41L33 41L33 42L30 42L30 41L29 41L29 40L30 40L30 39L31 39L31 38L30 38L30 39L28 39L28 38L26 38L26 39L25 39L25 38ZM46 38L46 39L47 39L47 38ZM27 39L27 40L28 40L28 39ZM17 40L17 41L18 41L18 42L17 42L17 44L18 44L18 45L17 45L17 46L18 46L18 47L17 47L17 48L18 48L18 49L16 49L16 46L15 46L15 44L16 44L16 43L13 43L13 44L12 44L12 43L11 43L11 42L12 42L12 41L11 41L11 42L10 42L10 44L9 44L9 45L8 45L8 47L9 47L9 48L8 48L8 53L9 53L9 51L10 51L10 50L11 50L11 49L12 49L12 48L13 48L13 51L12 51L12 52L14 52L14 53L15 53L15 52L14 52L14 51L16 51L16 53L17 53L17 52L18 52L18 53L19 53L19 50L20 50L20 46L18 46L18 45L19 45L19 43L18 43L18 42L19 42L19 41L18 41L18 40ZM13 41L13 42L14 42L14 41ZM15 41L15 42L16 42L16 41ZM26 41L26 42L27 42L27 41ZM28 41L28 42L29 42L29 41ZM47 41L47 42L48 42L48 44L47 44L47 43L46 43L46 44L45 44L45 43L44 43L44 46L43 46L43 44L42 44L42 46L43 46L43 47L44 47L44 50L45 50L45 53L48 53L48 52L46 52L46 50L47 50L47 51L49 51L49 53L51 53L51 52L52 52L52 51L53 51L53 50L52 50L52 51L51 51L51 52L50 52L50 49L52 49L52 48L53 48L53 47L52 47L52 46L53 46L53 44L52 44L52 43L51 43L51 42L50 42L50 43L49 43L49 41ZM52 41L52 42L53 42L53 41ZM33 42L33 43L32 43L32 44L31 44L31 43L30 43L30 44L31 44L31 45L30 45L30 46L31 46L31 45L32 45L32 44L33 44L33 43L34 43L34 42ZM39 42L39 44L40 44L40 42ZM35 43L35 44L36 44L36 43ZM50 43L50 44L51 44L51 43ZM13 44L13 45L12 45L12 47L13 47L13 48L14 48L14 49L15 49L15 50L16 50L16 49L15 49L15 48L14 48L14 47L13 47L13 46L14 46L14 44ZM10 45L10 46L9 46L9 47L11 47L11 45ZM25 45L25 48L28 48L28 45ZM45 45L45 48L48 48L48 45ZM51 45L51 46L52 46L52 45ZM26 46L26 47L27 47L27 46ZM46 46L46 47L47 47L47 46ZM50 47L50 48L49 48L49 49L50 49L50 48L51 48L51 47ZM9 49L9 50L10 50L10 49ZM41 49L41 51L40 51L40 52L39 52L39 53L40 53L40 52L41 52L41 53L44 53L44 52L42 52L42 50L43 50L43 49ZM45 49L45 50L46 50L46 49ZM47 49L47 50L48 50L48 49ZM17 50L17 51L18 51L18 50ZM21 51L21 52L20 52L20 53L21 53L21 52L22 52L22 51ZM23 51L23 52L24 52L24 53L25 53L25 52L24 52L24 51ZM0 0L0 7L7 7L7 0ZM1 1L1 6L6 6L6 1ZM2 2L2 5L5 5L5 2ZM46 0L46 7L53 7L53 0ZM47 1L47 6L52 6L52 1ZM48 2L48 5L51 5L51 2ZM0 46L0 53L7 53L7 46ZM1 47L1 52L6 52L6 47ZM2 48L2 51L5 51L5 48Z" fill="#000000"/></g></g></svg>
