<?xml version="1.0" encoding="UTF-8"?>
<svg xmlns="http://www.w3.org/2000/svg" version="1.1" width="500" height="500" viewBox="0 0 500 500"><rect x="0" y="0" width="500" height="500" fill="#ffffff"/><g transform="scale(8.197)"><g transform="translate(0,0)"><path fill-rule="evenodd" d="M11 0L11 1L12 1L12 2L9 2L9 1L8 1L8 2L9 2L9 3L8 3L8 4L9 4L9 5L8 5L8 7L9 7L9 5L10 5L10 3L12 3L12 4L11 4L11 6L10 6L10 12L13 12L13 10L15 10L15 9L14 9L14 8L16 8L16 9L17 9L17 10L16 10L16 11L14 11L14 12L16 12L16 13L12 13L12 14L11 14L11 13L10 13L10 14L9 14L9 10L8 10L8 9L9 9L9 8L6 8L6 9L7 9L7 10L5 10L5 11L4 11L4 12L2 12L2 13L1 13L1 12L0 12L0 14L2 14L2 15L0 15L0 16L1 16L1 17L2 17L2 16L3 16L3 15L4 15L4 17L5 17L5 19L4 19L4 20L5 20L5 21L3 21L3 18L2 18L2 19L1 19L1 18L0 18L0 20L2 20L2 21L1 21L1 22L0 22L0 23L1 23L1 22L2 22L2 21L3 21L3 24L2 24L2 26L1 26L1 24L0 24L0 32L2 32L2 31L1 31L1 30L4 30L4 32L3 32L3 33L4 33L4 35L5 35L5 37L7 37L7 38L3 38L3 37L4 37L4 36L2 36L2 38L1 38L1 40L0 40L0 42L1 42L1 43L0 43L0 44L1 44L1 45L2 45L2 46L1 46L1 48L0 48L0 49L1 49L1 50L2 50L2 51L0 51L0 53L4 53L4 52L5 52L5 51L7 51L7 52L6 52L6 53L8 53L8 55L9 55L9 56L8 56L8 61L11 61L11 60L9 60L9 58L11 58L11 59L12 59L12 60L13 60L13 61L14 61L14 60L16 60L16 61L17 61L17 60L18 60L18 61L19 61L19 57L18 57L18 56L16 56L16 57L18 57L18 59L17 59L17 60L16 60L16 59L15 59L15 56L14 56L14 55L13 55L13 56L11 56L11 55L10 55L10 54L12 54L12 53L13 53L13 51L14 51L14 50L16 50L16 49L13 49L13 51L12 51L12 50L11 50L11 51L12 51L12 53L10 53L10 51L9 51L9 49L11 49L11 46L10 46L10 44L11 44L11 42L10 42L10 44L9 44L9 45L8 45L8 44L4 44L4 43L9 43L9 41L8 41L8 42L6 42L6 41L7 41L7 40L8 40L8 39L10 39L10 41L11 41L11 38L12 38L12 37L13 37L13 36L14 36L14 39L12 39L12 42L13 42L13 41L14 41L14 42L15 42L15 41L17 41L17 42L16 42L16 43L15 43L15 45L14 45L14 43L12 43L12 45L13 45L13 46L14 46L14 47L13 47L13 48L14 48L14 47L15 47L15 46L16 46L16 47L17 47L17 46L18 46L18 47L19 47L19 48L17 48L17 49L19 49L19 50L18 50L18 51L17 51L17 52L16 52L16 51L15 51L15 52L14 52L14 53L15 53L15 55L16 55L16 53L17 53L17 55L18 55L18 53L22 53L22 55L21 55L21 56L20 56L20 57L21 57L21 56L24 56L24 55L23 55L23 54L25 54L25 53L26 53L26 55L25 55L25 56L26 56L26 55L28 55L28 56L27 56L27 57L26 57L26 58L25 58L25 57L22 57L22 58L20 58L20 61L21 61L21 60L25 60L25 61L26 61L26 60L25 60L25 59L26 59L26 58L27 58L27 57L30 57L30 58L29 58L29 59L27 59L27 61L28 61L28 60L30 60L30 61L32 61L32 60L33 60L33 61L34 61L34 58L33 58L33 59L32 59L32 60L30 60L30 58L31 58L31 57L33 57L33 56L34 56L34 57L35 57L35 56L34 56L34 55L35 55L35 54L34 54L34 51L33 51L33 50L32 50L32 49L33 49L33 48L34 48L34 49L35 49L35 48L34 48L34 47L33 47L33 45L35 45L35 44L36 44L36 45L37 45L37 44L36 44L36 43L37 43L37 42L36 42L36 43L35 43L35 42L34 42L34 43L33 43L33 42L32 42L32 43L31 43L31 42L29 42L29 41L28 41L28 39L29 39L29 40L30 40L30 41L32 41L32 39L33 39L33 38L34 38L34 39L35 39L35 41L39 41L39 42L38 42L38 43L39 43L39 44L38 44L38 45L39 45L39 46L36 46L36 47L39 47L39 48L38 48L38 49L39 49L39 48L43 48L43 49L40 49L40 51L39 51L39 50L38 50L38 51L39 51L39 52L38 52L38 53L39 53L39 54L37 54L37 55L39 55L39 56L38 56L38 57L39 57L39 56L41 56L41 57L40 57L40 58L38 58L38 61L39 61L39 59L41 59L41 58L43 58L43 59L42 59L42 60L43 60L43 59L44 59L44 60L45 60L45 61L49 61L49 60L47 60L47 59L49 59L49 58L50 58L50 59L52 59L52 58L53 58L53 61L55 61L55 59L56 59L56 60L57 60L57 61L61 61L61 57L60 57L60 60L58 60L58 59L59 59L59 58L58 58L58 57L59 57L59 56L58 56L58 54L57 54L57 53L59 53L59 54L60 54L60 55L61 55L61 54L60 54L60 53L61 53L61 52L60 52L60 51L61 51L61 50L60 50L60 49L61 49L61 46L60 46L60 45L61 45L61 42L60 42L60 41L61 41L61 38L60 38L60 37L61 37L61 36L60 36L60 35L61 35L61 34L60 34L60 33L61 33L61 32L60 32L60 33L59 33L59 32L58 32L58 31L59 31L59 30L60 30L60 31L61 31L61 30L60 30L60 29L61 29L61 28L60 28L60 27L61 27L61 26L60 26L60 25L61 25L61 22L60 22L60 21L61 21L61 20L60 20L60 19L61 19L61 18L60 18L60 17L61 17L61 14L60 14L60 15L59 15L59 14L58 14L58 13L59 13L59 12L60 12L60 11L61 11L61 10L60 10L60 11L59 11L59 9L60 9L60 8L59 8L59 9L58 9L58 8L57 8L57 12L58 12L58 13L56 13L56 11L55 11L55 13L54 13L54 10L56 10L56 8L55 8L55 9L54 9L54 8L52 8L52 9L54 9L54 10L52 10L52 12L51 12L51 10L50 10L50 9L51 9L51 8L47 8L47 5L45 5L45 4L47 4L47 3L48 3L48 7L49 7L49 6L50 6L50 7L51 7L51 5L52 5L52 4L53 4L53 0L51 0L51 2L50 2L50 1L49 1L49 0L48 0L48 1L46 1L46 0L44 0L44 2L39 2L39 1L40 1L40 0L39 0L39 1L38 1L38 3L34 3L34 2L36 2L36 0L35 0L35 1L34 1L34 2L32 2L32 3L33 3L33 4L29 4L29 3L31 3L31 2L30 2L30 1L29 1L29 2L27 2L27 1L28 1L28 0L26 0L26 1L25 1L25 0L24 0L24 3L25 3L25 4L24 4L24 7L23 7L23 6L22 6L22 5L23 5L23 4L22 4L22 3L23 3L23 2L22 2L22 1L23 1L23 0L22 0L22 1L21 1L21 3L20 3L20 2L19 2L19 1L17 1L17 0L16 0L16 1L15 1L15 2L16 2L16 4L13 4L13 3L14 3L14 1L13 1L13 0ZM31 0L31 1L33 1L33 0ZM41 0L41 1L43 1L43 0ZM12 2L12 3L13 3L13 2ZM48 2L48 3L49 3L49 4L50 4L50 2ZM26 3L26 4L25 4L25 5L26 5L26 6L25 6L25 7L24 7L24 8L19 8L19 9L22 9L22 10L21 10L21 11L22 11L22 13L23 13L23 14L22 14L22 17L20 17L20 18L19 18L19 17L18 17L18 16L19 16L19 15L20 15L20 16L21 16L21 13L20 13L20 12L19 12L19 13L18 13L18 10L17 10L17 11L16 11L16 12L17 12L17 13L16 13L16 16L15 16L15 14L12 14L12 15L14 15L14 16L13 16L13 17L14 17L14 18L15 18L15 19L13 19L13 20L14 20L14 22L12 22L12 24L9 24L9 23L11 23L11 21L10 21L10 22L9 22L9 21L5 21L5 22L9 22L9 23L8 23L8 26L7 26L7 25L5 25L5 26L7 26L7 27L6 27L6 28L9 28L9 29L10 29L10 28L11 28L11 32L9 32L9 33L11 33L11 34L9 34L9 35L8 35L8 36L9 36L9 35L11 35L11 37L12 37L12 35L14 35L14 36L15 36L15 37L16 37L16 38L17 38L17 39L16 39L16 40L17 40L17 41L18 41L18 40L17 40L17 39L18 39L18 38L19 38L19 40L21 40L21 41L20 41L20 42L18 42L18 43L19 43L19 45L18 45L18 44L17 44L17 43L16 43L16 44L17 44L17 45L16 45L16 46L17 46L17 45L18 45L18 46L19 46L19 45L20 45L20 48L19 48L19 49L20 49L20 50L19 50L19 51L20 51L20 52L21 52L21 50L22 50L22 51L24 51L24 53L25 53L25 52L26 52L26 53L27 53L27 54L28 54L28 53L27 53L27 52L26 52L26 50L24 50L24 49L25 49L25 48L26 48L26 49L27 49L27 50L28 50L28 49L27 49L27 48L26 48L26 47L25 47L25 48L24 48L24 47L23 47L23 46L22 46L22 45L23 45L23 44L22 44L22 43L24 43L24 45L25 45L25 46L29 46L29 48L33 48L33 47L32 47L32 45L33 45L33 43L32 43L32 45L27 45L27 44L29 44L29 42L28 42L28 43L27 43L27 42L25 42L25 43L24 43L24 42L22 42L22 43L20 43L20 42L21 42L21 41L27 41L27 40L22 40L22 37L27 37L27 38L25 38L25 39L27 39L27 38L28 38L28 37L27 37L27 36L26 36L26 35L27 35L27 34L28 34L28 35L29 35L29 37L30 37L30 38L29 38L29 39L30 39L30 38L31 38L31 39L32 39L32 38L33 38L33 37L34 37L34 38L36 38L36 39L37 39L37 40L38 40L38 38L39 38L39 39L43 39L43 40L44 40L44 41L43 41L43 42L41 42L41 43L43 43L43 46L42 46L42 47L43 47L43 48L44 48L44 49L46 49L46 50L47 50L47 44L49 44L49 45L50 45L50 46L53 46L53 48L57 48L57 47L56 47L56 46L58 46L58 48L59 48L59 49L55 49L55 50L56 50L56 51L58 51L58 52L59 52L59 53L60 53L60 52L59 52L59 51L58 51L58 50L59 50L59 49L60 49L60 46L58 46L58 45L55 45L55 43L58 43L58 44L59 44L59 45L60 45L60 44L59 44L59 43L60 43L60 42L57 42L57 41L56 41L56 40L55 40L55 39L56 39L56 38L57 38L57 40L59 40L59 41L60 41L60 38L57 38L57 37L58 37L58 36L59 36L59 37L60 37L60 36L59 36L59 33L58 33L58 36L57 36L57 33L51 33L51 31L52 31L52 30L51 30L51 29L52 29L52 28L54 28L54 27L56 27L56 25L57 25L57 24L59 24L59 23L60 23L60 22L59 22L59 21L60 21L60 20L59 20L59 18L58 18L58 17L57 17L57 16L56 16L56 17L57 17L57 19L55 19L55 18L53 18L53 17L54 17L54 16L53 16L53 15L52 15L52 14L53 14L53 13L51 13L51 12L50 12L50 11L48 11L48 10L49 10L49 9L46 9L46 8L44 8L44 6L43 6L43 5L42 5L42 6L41 6L41 8L39 8L39 7L40 7L40 4L41 4L41 3L39 3L39 4L38 4L38 5L36 5L36 4L34 4L34 5L33 5L33 7L34 7L34 8L33 8L33 10L31 10L31 11L32 11L32 12L29 12L29 11L30 11L30 9L28 9L28 8L27 8L27 7L28 7L28 6L27 6L27 5L28 5L28 4L27 4L27 3ZM44 3L44 4L45 4L45 3ZM51 3L51 4L52 4L52 3ZM12 4L12 6L11 6L11 7L12 7L12 6L13 6L13 7L14 7L14 6L15 6L15 7L16 7L16 8L17 8L17 9L18 9L18 8L17 8L17 7L18 7L18 5L20 5L20 6L19 6L19 7L20 7L20 6L21 6L21 7L22 7L22 6L21 6L21 5L22 5L22 4L16 4L16 5L17 5L17 7L16 7L16 6L15 6L15 5L13 5L13 4ZM26 4L26 5L27 5L27 4ZM29 5L29 8L32 8L32 5ZM34 5L34 7L35 7L35 6L36 6L36 7L37 7L37 8L35 8L35 9L36 9L36 10L34 10L34 12L33 12L33 13L29 13L29 14L28 14L28 11L29 11L29 10L28 10L28 9L24 9L24 11L23 11L23 10L22 10L22 11L23 11L23 12L24 12L24 11L26 11L26 10L28 10L28 11L27 11L27 13L26 13L26 12L25 12L25 13L24 13L24 14L23 14L23 17L22 17L22 18L20 18L20 19L19 19L19 18L18 18L18 17L17 17L17 19L18 19L18 20L16 20L16 19L15 19L15 22L14 22L14 23L15 23L15 24L16 24L16 25L18 25L18 26L17 26L17 28L16 28L16 27L15 27L15 26L14 26L14 24L12 24L12 25L11 25L11 26L10 26L10 25L9 25L9 27L11 27L11 28L12 28L12 34L11 34L11 35L12 35L12 34L13 34L13 33L16 33L16 34L15 34L15 35L16 35L16 37L22 37L22 36L23 36L23 35L22 35L22 34L23 34L23 33L24 33L24 36L25 36L25 33L26 33L26 34L27 34L27 33L28 33L28 34L29 34L29 35L30 35L30 37L31 37L31 36L32 36L32 37L33 37L33 36L32 36L32 35L33 35L33 31L35 31L35 30L34 30L34 28L36 28L36 29L37 29L37 28L38 28L38 27L39 27L39 28L42 28L42 29L41 29L41 30L43 30L43 31L44 31L44 32L42 32L42 33L39 33L39 32L40 32L40 30L38 30L38 33L39 33L39 34L36 34L36 35L35 35L35 34L34 34L34 36L35 36L35 37L37 37L37 36L38 36L38 35L39 35L39 36L42 36L42 37L41 37L41 38L43 38L43 39L45 39L45 41L44 41L44 42L45 42L45 43L44 43L44 44L45 44L45 45L44 45L44 46L45 46L45 45L46 45L46 43L47 43L47 42L45 42L45 41L47 41L47 40L48 40L48 41L49 41L49 42L48 42L48 43L49 43L49 42L50 42L50 43L51 43L51 42L50 42L50 41L52 41L52 40L51 40L51 39L53 39L53 40L54 40L54 43L53 43L53 42L52 42L52 44L51 44L51 45L54 45L54 47L55 47L55 45L54 45L54 43L55 43L55 40L54 40L54 39L55 39L55 38L56 38L56 37L57 37L57 36L56 36L56 37L55 37L55 36L53 36L53 35L56 35L56 34L50 34L50 32L49 32L49 31L51 31L51 30L50 30L50 28L51 28L51 27L52 27L52 26L50 26L50 25L49 25L49 24L50 24L50 23L51 23L51 25L53 25L53 24L57 24L57 23L59 23L59 22L58 22L58 21L59 21L59 20L58 20L58 19L57 19L57 20L58 20L58 21L56 21L56 20L55 20L55 19L53 19L53 20L52 20L52 21L51 21L51 18L50 18L50 17L51 17L51 16L52 16L52 17L53 17L53 16L52 16L52 15L51 15L51 14L50 14L50 13L49 13L49 12L48 12L48 11L47 11L47 10L45 10L45 9L44 9L44 8L43 8L43 6L42 6L42 8L41 8L41 9L39 9L39 10L38 10L38 9L37 9L37 8L38 8L38 7L39 7L39 5L38 5L38 7L37 7L37 6L36 6L36 5ZM26 6L26 7L25 7L25 8L26 8L26 7L27 7L27 6ZM30 6L30 7L31 7L31 6ZM45 6L45 7L46 7L46 6ZM52 6L52 7L53 7L53 6ZM0 8L0 11L1 11L1 10L3 10L3 9L5 9L5 8ZM42 8L42 9L43 9L43 8ZM11 9L11 11L12 11L12 10L13 10L13 9ZM7 10L7 11L5 11L5 12L8 12L8 10ZM19 10L19 11L20 11L20 10ZM37 10L37 11L36 11L36 12L34 12L34 14L35 14L35 15L33 15L33 14L32 14L32 17L29 17L29 15L27 15L27 14L26 14L26 13L25 13L25 16L24 16L24 17L23 17L23 20L22 20L22 21L25 21L25 23L24 23L24 22L22 22L22 23L21 23L21 21L20 21L20 20L19 20L19 22L18 22L18 23L17 23L17 24L18 24L18 25L19 25L19 26L20 26L20 27L21 27L21 25L23 25L23 26L22 26L22 27L24 27L24 28L21 28L21 29L20 29L20 31L19 31L19 29L18 29L18 28L19 28L19 27L18 27L18 28L17 28L17 29L16 29L16 28L14 28L14 26L13 26L13 25L12 25L12 26L11 26L11 27L12 27L12 26L13 26L13 30L14 30L14 29L16 29L16 33L17 33L17 34L18 34L18 36L19 36L19 33L20 33L20 36L21 36L21 34L22 34L22 33L23 33L23 31L24 31L24 30L22 30L22 33L20 33L20 32L21 32L21 29L25 29L25 27L24 27L24 25L27 25L27 26L26 26L26 29L27 29L27 30L28 30L28 29L27 29L27 27L28 27L28 28L29 28L29 27L28 27L28 24L29 24L29 26L30 26L30 25L31 25L31 24L32 24L32 25L33 25L33 26L31 26L31 27L32 27L32 28L34 28L34 26L35 26L35 27L36 27L36 28L37 28L37 27L38 27L38 26L39 26L39 25L40 25L40 26L41 26L41 24L42 24L42 23L43 23L43 24L44 24L44 25L43 25L43 26L42 26L42 27L43 27L43 30L45 30L45 31L46 31L46 30L48 30L48 28L50 28L50 26L49 26L49 25L48 25L48 24L49 24L49 23L48 23L48 20L49 20L49 22L51 22L51 21L50 21L50 18L47 18L47 17L46 17L46 18L45 18L45 19L44 19L44 18L41 18L41 17L42 17L42 16L39 16L39 15L36 15L36 12L38 12L38 14L40 14L40 15L43 15L43 16L44 16L44 17L45 17L45 16L44 16L44 15L46 15L46 16L49 16L49 17L50 17L50 16L51 16L51 15L50 15L50 14L49 14L49 13L48 13L48 12L47 12L47 11L46 11L46 14L44 14L44 13L45 13L45 12L44 12L44 13L43 13L43 12L42 12L42 11L43 11L43 10L39 10L39 11L38 11L38 10ZM39 11L39 12L41 12L41 11ZM58 11L58 12L59 12L59 11ZM3 13L3 14L8 14L8 16L7 16L7 15L6 15L6 16L5 16L5 17L6 17L6 18L7 18L7 17L9 17L9 18L8 18L8 19L9 19L9 18L10 18L10 19L11 19L11 18L12 18L12 17L11 17L11 16L10 16L10 15L11 15L11 14L10 14L10 15L9 15L9 14L8 14L8 13ZM17 13L17 14L18 14L18 15L19 15L19 14L20 14L20 13L19 13L19 14L18 14L18 13ZM40 13L40 14L43 14L43 13ZM30 14L30 15L31 15L31 14ZM46 14L46 15L47 15L47 14ZM48 14L48 15L49 15L49 14ZM54 14L54 15L55 15L55 14ZM56 14L56 15L58 15L58 16L59 16L59 17L60 17L60 16L59 16L59 15L58 15L58 14ZM26 15L26 16L27 16L27 15ZM6 16L6 17L7 17L7 16ZM33 16L33 17L32 17L32 18L31 18L31 19L30 19L30 20L29 20L29 21L30 21L30 22L28 22L28 23L29 23L29 24L31 24L31 21L30 21L30 20L34 20L34 19L36 19L36 18L33 18L33 17L34 17L34 16ZM35 16L35 17L37 17L37 16ZM38 16L38 17L39 17L39 16ZM15 17L15 18L16 18L16 17ZM24 17L24 20L25 20L25 19L26 19L26 20L27 20L27 21L26 21L26 24L27 24L27 21L28 21L28 20L27 20L27 18L28 18L28 19L29 19L29 17ZM32 18L32 19L33 19L33 18ZM37 18L37 20L35 20L35 22L34 22L34 21L32 21L32 22L33 22L33 23L35 23L35 26L36 26L36 27L37 27L37 26L38 26L38 25L39 25L39 24L41 24L41 23L39 23L39 22L40 22L40 21L39 21L39 22L38 22L38 19L41 19L41 18ZM46 18L46 20L45 20L45 21L44 21L44 20L43 20L43 19L42 19L42 21L41 21L41 22L43 22L43 21L44 21L44 22L45 22L45 21L47 21L47 20L48 20L48 19L47 19L47 18ZM6 19L6 20L7 20L7 19ZM53 20L53 21L52 21L52 24L53 24L53 22L54 22L54 23L57 23L57 22L56 22L56 21L55 21L55 22L54 22L54 20ZM16 21L16 22L17 22L17 21ZM19 22L19 23L20 23L20 22ZM37 22L37 23L36 23L36 24L37 24L37 25L36 25L36 26L37 26L37 25L38 25L38 22ZM46 22L46 23L47 23L47 22ZM4 23L4 24L3 24L3 29L4 29L4 28L5 28L5 27L4 27L4 24L5 24L5 23ZM6 23L6 24L7 24L7 23ZM22 23L22 24L24 24L24 23ZM44 23L44 24L45 24L45 25L47 25L47 24L45 24L45 23ZM33 24L33 25L34 25L34 24ZM54 25L54 26L55 26L55 25ZM58 25L58 26L57 26L57 27L58 27L58 28L57 28L57 29L58 29L58 30L59 30L59 29L58 29L58 28L59 28L59 27L58 27L58 26L59 26L59 25ZM43 26L43 27L44 27L44 28L45 28L45 30L46 30L46 27L47 27L47 26ZM1 27L1 28L2 28L2 27ZM5 29L5 32L8 32L8 29ZM29 29L29 32L32 32L32 29ZM53 29L53 32L56 32L56 29ZM6 30L6 31L7 31L7 30ZM25 30L25 32L24 32L24 33L25 33L25 32L26 32L26 33L27 33L27 32L28 32L28 31L27 31L27 32L26 32L26 30ZM30 30L30 31L31 31L31 30ZM36 30L36 32L35 32L35 33L37 33L37 30ZM54 30L54 31L55 31L55 30ZM13 31L13 32L15 32L15 31ZM47 31L47 32L48 32L48 31ZM18 32L18 33L19 33L19 32ZM44 32L44 33L43 33L43 34L41 34L41 35L43 35L43 38L47 38L47 39L48 39L48 40L49 40L49 39L48 39L48 36L52 36L52 35L50 35L50 34L49 34L49 33L46 33L46 34L44 34L44 33L45 33L45 32ZM1 33L1 34L0 34L0 35L1 35L1 34L2 34L2 33ZM5 33L5 35L6 35L6 36L7 36L7 35L6 35L6 34L7 34L7 33ZM30 33L30 34L31 34L31 35L32 35L32 34L31 34L31 33ZM39 34L39 35L40 35L40 34ZM43 34L43 35L44 35L44 36L45 36L45 35L44 35L44 34ZM46 34L46 35L47 35L47 36L48 36L48 35L49 35L49 34L48 34L48 35L47 35L47 34ZM36 35L36 36L37 36L37 35ZM9 37L9 38L10 38L10 37ZM49 37L49 38L53 38L53 37ZM7 38L7 39L4 39L4 40L7 40L7 39L8 39L8 38ZM20 38L20 39L21 39L21 38ZM2 39L2 42L3 42L3 43L1 43L1 44L2 44L2 45L3 45L3 47L2 47L2 49L3 49L3 50L5 50L5 48L4 48L4 49L3 49L3 47L4 47L4 45L3 45L3 43L4 43L4 41L3 41L3 39ZM39 40L39 41L42 41L42 40ZM26 43L26 44L25 44L25 45L26 45L26 44L27 44L27 43ZM30 43L30 44L31 44L31 43ZM34 43L34 44L35 44L35 43ZM20 44L20 45L21 45L21 44ZM39 44L39 45L40 45L40 47L41 47L41 44ZM5 45L5 46L8 46L8 45ZM9 46L9 47L8 47L8 48L7 48L7 47L6 47L6 48L7 48L7 49L6 49L6 50L7 50L7 49L8 49L8 48L9 48L9 47L10 47L10 46ZM21 46L21 48L20 48L20 49L21 49L21 48L22 48L22 46ZM30 46L30 47L31 47L31 46ZM44 47L44 48L46 48L46 47ZM48 47L48 48L49 48L49 47ZM50 47L50 48L52 48L52 47ZM23 48L23 49L24 49L24 48ZM36 48L36 50L35 50L35 51L36 51L36 50L37 50L37 48ZM29 49L29 51L28 51L28 52L30 52L30 50L31 50L31 49ZM50 49L50 50L49 50L49 51L48 51L48 52L46 52L46 51L45 51L45 50L41 50L41 52L39 52L39 53L40 53L40 54L39 54L39 55L41 55L41 56L43 56L43 58L45 58L45 59L46 59L46 58L47 58L47 57L48 57L48 56L49 56L49 55L50 55L50 54L51 54L51 55L52 55L52 54L51 54L51 52L50 52L50 50L51 50L51 49ZM53 49L53 50L52 50L52 51L53 51L53 52L55 52L55 51L53 51L53 50L54 50L54 49ZM3 51L3 52L4 52L4 51ZM8 51L8 52L9 52L9 51ZM32 51L32 52L33 52L33 51ZM42 51L42 52L41 52L41 55L42 55L42 54L43 54L43 55L44 55L44 56L45 56L45 57L46 57L46 56L45 56L45 55L48 55L48 54L43 54L43 51ZM44 51L44 52L45 52L45 53L46 53L46 52L45 52L45 51ZM22 52L22 53L23 53L23 52ZM35 52L35 53L37 53L37 52ZM48 52L48 53L50 53L50 52ZM9 53L9 54L10 54L10 53ZM29 53L29 56L32 56L32 53ZM53 53L53 56L56 56L56 53ZM30 54L30 55L31 55L31 54ZM33 54L33 55L34 55L34 54ZM54 54L54 55L55 55L55 54ZM9 56L9 57L10 57L10 56ZM13 56L13 57L14 57L14 56ZM36 56L36 58L35 58L35 59L36 59L36 58L37 58L37 56ZM50 56L50 58L52 58L52 57L51 57L51 56ZM53 57L53 58L54 58L54 59L55 59L55 58L56 58L56 59L57 59L57 57L55 57L55 58L54 58L54 57ZM22 58L22 59L23 59L23 58ZM36 60L36 61L37 61L37 60ZM0 0L0 7L7 7L7 0ZM1 1L1 6L6 6L6 1ZM2 2L2 5L5 5L5 2ZM54 0L54 7L61 7L61 0ZM55 1L55 6L60 6L60 1ZM56 2L56 5L59 5L59 2ZM0 54L0 61L7 61L7 54ZM1 55L1 60L6 60L6 55ZM2 56L2 59L5 59L5 56Z" fill="#000000"/></g></g></svg>
